<?xml version="1.0" encoding="UTF-8"?>
<svg version="1.1" xmlns="http://www.w3.org/2000/svg" width="500" height="500">
<path d="M0 0 C3.67873527 -0.00161491 7.3574643 -0.00516608 11.03619766 -0.00918579 C16.75291664 -0.01497119 22.46960885 -0.01532132 28.18632889 -0.01093674 C30.24327454 -0.0099505 32.30022165 -0.01050292 34.35716629 -0.01277542 C37.13923303 -0.01532556 39.92122056 -0.01153669 42.7032814 -0.00601196 C43.88820663 -0.00905209 43.88820663 -0.00905209 45.09706974 -0.01215363 C63.84578284 0.05828458 83.34182117 5.70739808 97.87198257 18.12338257 C97.87198257 18.78338257 97.87198257 19.44338257 97.87198257 20.12338257 C98.47010757 20.39150757 99.06823257 20.65963257 99.68448257 20.93588257 C101.87046111 22.12255663 103.28530851 23.21937369 104.87198257 25.12338257 C104.87198257 25.78338257 104.87198257 26.44338257 104.87198257 27.12338257 C105.53198257 27.12338257 106.19198257 27.12338257 106.87198257 27.12338257 C106.87198257 27.78338257 106.87198257 28.44338257 106.87198257 29.12338257 C107.53198257 29.12338257 108.19198257 29.12338257 108.87198257 29.12338257 C108.87198257 29.78338257 108.87198257 30.44338257 108.87198257 31.12338257 C109.53198257 31.12338257 110.19198257 31.12338257 110.87198257 31.12338257 C127.65515744 54.42717283 128.96831077 77.96386988 129.45792007 105.66635132 C129.47949551 106.85972799 129.50107094 108.05310467 129.52330017 109.28264427 C130.17627751 147.23971359 129.80179101 185.20512611 129.55516982 223.1645745 C129.50158261 231.49643763 129.45645068 239.82833074 129.41333926 248.16025382 C129.3659259 257.29333271 129.31322236 266.42637352 129.25798035 275.55940819 C129.23482698 279.39839154 129.21341777 283.23737845 129.19347382 287.07637978 C129.16987809 291.5676716 129.14159677 296.05891091 129.10978508 300.55015182 C129.09892264 302.18512054 129.08960428 303.82010044 129.08202171 305.45508766 C128.95563223 332.01505305 124.87245094 355.26789312 105.87198257 375.12338257 C96.7006795 384.12338257 96.7006795 384.12338257 93.87198257 384.12338257 C93.87198257 384.78338257 93.87198257 385.44338257 93.87198257 386.12338257 C87.27678968 391.09895951 79.54487094 394.23444304 71.87198257 397.12338257 C70.54601311 397.66071014 70.54601311 397.66071014 69.19325638 398.20889282 C57.03243004 402.44140864 44.36565312 401.73464814 31.64611387 401.73086214 C28.14483568 401.73409709 24.64371425 401.76005827 21.1425209 401.78314209 C14.3971782 401.82410175 7.65193272 401.84447646 0.90648413 401.85734236 C-6.85170592 401.87294922 -14.60975109 401.90989527 -22.36785972 401.94761682 C-39.19551241 402.02843602 -56.02316116 402.07327418 -72.85096031 402.10906112 C-79.91045021 402.12440434 -86.96991506 402.14651706 -94.02938461 402.16928101 C-105.41131899 402.20523186 -116.79323301 402.2314793 -128.17521667 402.24497986 C-130.02208752 402.24725244 -131.868958 402.24984759 -133.71582794 402.25276184 C-138.87978253 402.2608232 -144.04368322 402.26396731 -149.2076416 402.25795364 C-150.72607132 402.25680013 -152.24450329 402.25725101 -153.76293182 402.25947189 C-155.79584086 402.26200529 -157.8287551 402.25759534 -159.86166 402.2527771 C-161.54682472 402.25158371 -161.54682472 402.25158371 -163.26603317 402.25036621 C-165.73284194 402.14091615 -167.77808719 401.84210607 -170.12801743 401.12338257 C-170.12801743 400.46338257 -170.12801743 399.80338257 -170.12801743 399.12338257 C-170.78801743 399.12338257 -171.44801743 399.12338257 -172.12801743 399.12338257 C-172.50313461 398.42213257 -172.8782518 397.72088257 -173.26473618 396.99838257 C-176.07621751 391.78616529 -178.93495959 386.69295269 -182.24520493 381.77963257 C-183.12801743 380.12338257 -183.12801743 380.12338257 -183.12801743 377.12338257 C-183.78801743 377.12338257 -184.44801743 377.12338257 -185.12801743 377.12338257 C-186.44600761 374.70956911 -187.75752661 372.29260661 -189.06551743 369.87338257 C-189.43870102 369.19146851 -189.81188461 368.50955444 -190.1963768 367.80697632 C-190.55409164 367.14310913 -190.91180649 366.47924194 -191.28036118 365.79525757 C-191.61028061 365.18778687 -191.94020004 364.58031616 -192.28011703 363.95443726 C-193.16999434 362.03273275 -193.67943253 360.18886679 -194.12801743 358.12338257 C-194.78801743 358.12338257 -195.44801743 358.12338257 -196.12801743 358.12338257 C-196.46832993 357.49174194 -196.80864243 356.86010132 -197.15926743 356.20932007 C-202.31365387 346.6956387 -207.58261171 337.25549298 -213.23739243 328.02963257 C-213.77670395 327.14589966 -214.31601547 326.26216675 -214.87166977 325.35165405 C-215.93766022 323.60972802 -217.01062276 321.87204437 -218.09139633 320.13925171 C-222.84161923 312.36960933 -225.09904947 306.23536676 -223.12801743 297.12338257 C-220.24466266 288.8852261 -216.25005303 284.7649397 -208.75301743 280.81088257 C-207.32418542 280.03566345 -205.89580918 279.25960379 -204.46786118 278.48275757 C-203.74711411 278.09410522 -203.02636703 277.70545288 -202.28377914 277.30502319 C-200.1910413 276.15792793 -198.12736723 274.97224887 -196.06942368 273.76400757 C-195.11978745 273.20773682 -195.11978745 273.20773682 -194.15096664 272.64022827 C-192.4065123 271.61439259 -190.66370307 270.58576086 -188.92098618 269.55697632 C-186.12801743 268.12338257 -186.12801743 268.12338257 -183.12801743 268.12338257 C-183.12801743 267.46338257 -183.12801743 266.80338257 -183.12801743 266.12338257 C-181.80801743 266.12338257 -180.48801743 266.12338257 -179.12801743 266.12338257 C-179.12801743 265.46338257 -179.12801743 264.80338257 -179.12801743 264.12338257 C-178.52650864 263.83132935 -177.92499985 263.53927612 -177.30526352 263.2383728 C-170.97205978 260.12313115 -164.8513882 256.7351242 -158.75301743 253.18588257 C-138.3623766 241.43360586 -138.3623766 241.43360586 -132.12801743 240.12338257 C-132.12801743 239.46338257 -132.12801743 238.80338257 -132.12801743 238.12338257 C-129.48062826 236.66275406 -128.23353408 236.12338257 -125.12801743 236.12338257 C-125.12801743 235.46338257 -125.12801743 234.80338257 -125.12801743 234.12338257 C-124.13801743 233.79338257 -123.14801743 233.46338257 -122.12801743 233.12338257 C-121.79801743 204.08338257 -121.46801743 175.04338257 -121.12801743 145.12338257 C-154.45801743 145.12338257 -187.78801743 145.12338257 -222.12801743 145.12338257 C-222.12801743 97.60338257 -222.12801743 50.08338257 -222.12801743 1.12338257 C-184.91580008 0.85856059 -184.91580008 0.85856059 -171.41195297 0.76742554 C-170.56049804 0.76167818 -169.70904311 0.75593082 -168.83178651 0.7500093 C-112.55485648 0.37093389 -56.27838873 0.01618366 0 0 Z M-33.12801743 43.12338257 C-33.12801743 43.78338257 -33.12801743 44.44338257 -33.12801743 45.12338257 C-33.76739243 45.39150757 -34.40676743 45.65963257 -35.06551743 45.93588257 C-37.45933429 47.01006009 -37.45933429 47.01006009 -38.12801743 50.12338257 C-38.78801743 50.12338257 -39.44801743 50.12338257 -40.12801743 50.12338257 C-44.97230358 58.06816653 -44.97230358 58.06816653 -46.12801743 67.12338257 C-45.85086899 66.55232788 -45.57372055 65.98127319 -45.28817368 65.39291382 C-40.18013228 55.40041533 -33.01962587 47.68366365 -22.26473618 43.78353882 C-13.15097414 41.86544942 -1.28712899 41.14149639 7.03213882 45.86947632 C7.63928726 46.28326538 8.2464357 46.69705444 8.87198257 47.12338257 C9.55131851 47.54748413 10.23065445 47.97158569 10.93057632 48.40853882 C17.36083439 52.77236234 21.60767444 58.72692036 25.87198257 65.12338257 C25.58303759 58.47764789 22.87662969 53.40271842 18.87198257 48.12338257 C18.21198257 48.12338257 17.55198257 48.12338257 16.87198257 48.12338257 C16.87198257 47.46338257 16.87198257 46.80338257 16.87198257 46.12338257 C14.2351351 43.72517952 14.2351351 43.72517952 10.87198257 43.12338257 C10.87198257 42.46338257 10.87198257 41.80338257 10.87198257 41.12338257 C9.88198257 41.12338257 8.89198257 41.12338257 7.87198257 41.12338257 C7.87198257 40.46338257 7.87198257 39.80338257 7.87198257 39.12338257 C-6.24899941 34.23451091 -20.77208581 32.53258404 -33.12801743 43.12338257 Z M-27.25301743 62.99838257 C-29.34855797 64.90100418 -29.34855797 64.90100418 -29.12801743 67.12338257 C-29.78801743 67.12338257 -30.44801743 67.12338257 -31.12801743 67.12338257 C-35.22918368 77.08335775 -36.10148 83.71626355 -33.12801743 94.12338257 C-32.46801743 94.12338257 -31.80801743 94.12338257 -31.12801743 94.12338257 C-30.46801743 96.10338257 -29.80801743 98.08338257 -29.12801743 100.12338257 C-28.46801743 100.12338257 -27.80801743 100.12338257 -27.12801743 100.12338257 C-27.12801743 100.78338257 -27.12801743 101.44338257 -27.12801743 102.12338257 C-25.47801743 102.78338257 -23.82801743 103.44338257 -22.12801743 104.12338257 C-22.78801743 103.13338257 -23.44801743 102.14338257 -24.12801743 101.12338257 C-24.78801743 101.12338257 -25.44801743 101.12338257 -26.12801743 101.12338257 C-26.39614243 100.25713257 -26.66426743 99.39088257 -26.94051743 98.49838257 C-27.97652312 95.14991534 -27.97652312 95.14991534 -29.75301743 92.56088257 C-33.20025236 83.94279524 -31.32641786 74.55725992 -28.12801743 66.12338257 C-27.46801743 66.12338257 -26.80801743 66.12338257 -26.12801743 66.12338257 C-24.48335003 63.66011545 -24.48335003 63.66011545 -23.12801743 61.12338257 C-25.35039581 60.90284202 -25.35039581 60.90284202 -27.25301743 62.99838257 Z M5.87198257 65.12338257 C6.53198257 65.78338257 7.19198257 66.44338257 7.87198257 67.12338257 C7.87198257 66.46338257 7.87198257 65.80338257 7.87198257 65.12338257 C7.21198257 65.12338257 6.55198257 65.12338257 5.87198257 65.12338257 Z M7.87198257 67.12338257 C8.16073257 67.72924194 8.44948257 68.33510132 8.74698257 68.95932007 C11.88751928 76.04733693 13.43404771 82.53481624 10.87198257 90.06088257 C10.37698257 91.08182007 10.37698257 91.08182007 9.87198257 92.12338257 C9.87198257 93.11338257 9.87198257 94.10338257 9.87198257 95.12338257 C9.21198257 95.12338257 8.55198257 95.12338257 7.87198257 95.12338257 C7.54198257 96.11338257 7.21198257 97.10338257 6.87198257 98.12338257 C7.53198257 98.12338257 8.19198257 98.12338257 8.87198257 98.12338257 C8.87198257 97.46338257 8.87198257 96.80338257 8.87198257 96.12338257 C9.53198257 96.12338257 10.19198257 96.12338257 10.87198257 96.12338257 C10.87198257 95.46338257 10.87198257 94.80338257 10.87198257 94.12338257 C11.53198257 94.12338257 12.19198257 94.12338257 12.87198257 94.12338257 C15.51574956 87.18349424 17.15110744 81.71711434 14.55948257 74.43588257 C13.16791353 71.70428408 11.94236162 69.37379457 9.87198257 67.12338257 C9.21198257 67.12338257 8.55198257 67.12338257 7.87198257 67.12338257 Z M26.87198257 67.12338257 C27.87198257 70.12338257 27.87198257 70.12338257 27.87198257 70.12338257 Z M-57.12801743 87.12338257 C-56.12801743 91.12338257 -56.12801743 91.12338257 -56.12801743 91.12338257 Z M-56.12801743 91.12338257 C-55.12801743 93.12338257 -55.12801743 93.12338257 -55.12801743 93.12338257 Z M35.87198257 91.12338257 C36.87198257 94.12338257 36.87198257 94.12338257 36.87198257 94.12338257 Z M-55.12801743 93.12338257 C-55.83974489 98.35966319 -53.41454551 101.67008985 -50.75301743 105.93588257 C-50.13426743 106.97518921 -50.13426743 106.97518921 -49.50301743 108.03549194 C-48.44212405 109.77227707 -47.29158424 111.45364319 -46.12801743 113.12338257 C-45.46801743 113.12338257 -44.80801743 113.12338257 -44.12801743 113.12338257 C-44.12801743 113.78338257 -44.12801743 114.44338257 -44.12801743 115.12338257 C-43.46801743 115.12338257 -42.80801743 115.12338257 -42.12801743 115.12338257 C-42.12801743 115.78338257 -42.12801743 116.44338257 -42.12801743 117.12338257 C-31.60850213 126.38785808 -19.91388803 129.27371922 -6.12801743 129.12338257 C0.4661677 128.45766674 6.6642877 126.37254738 12.87198257 124.12338257 C12.87198257 123.46338257 12.87198257 122.80338257 12.87198257 122.12338257 C13.42499039 122.04861694 13.9779982 121.97385132 14.54776382 121.89682007 C17.73402355 120.83651851 19.58822358 119.00427335 22.05948257 116.74838257 C22.93991226 115.95689819 23.82034195 115.16541382 24.72745132 114.34994507 C27.07467251 112.23256664 27.07467251 112.23256664 27.87198257 109.12338257 C28.53198257 109.12338257 29.19198257 109.12338257 29.87198257 109.12338257 C30.90489098 107.19229294 31.92296929 105.25326457 32.93448257 103.31088257 C33.50295914 102.23193726 34.0714357 101.15299194 34.65713882 100.04135132 C36.24114046 97.13658014 36.24114046 97.13658014 34.87198257 94.12338257 C34.47108414 94.82463257 34.0701857 95.52588257 33.65713882 96.24838257 C26.14083291 108.79260287 16.03037565 116.62667165 2.06729507 121.00228882 C-0.34150127 121.53882757 -2.67249647 121.89093222 -5.12801743 122.12338257 C-5.80477524 122.20459351 -6.48153305 122.28580444 -7.17879868 122.36947632 C-12.37871029 122.69263467 -17.28065922 121.56997725 -22.31551743 120.37338257 C-22.9930809 120.21660034 -23.67064438 120.05981812 -24.36874008 119.89828491 C-28.97057651 118.72044064 -32.2479127 116.79621882 -36.12801743 114.12338257 C-37.11801743 114.12338257 -38.10801743 114.12338257 -39.12801743 114.12338257 C-39.12801743 113.46338257 -39.12801743 112.80338257 -39.12801743 112.12338257 C-39.78801743 112.12338257 -40.44801743 112.12338257 -41.12801743 112.12338257 C-41.12801743 111.46338257 -41.12801743 110.80338257 -41.12801743 110.12338257 C-41.99426743 109.44275757 -42.86051743 108.76213257 -43.75301743 108.06088257 C-47.88333075 104.78207934 -50.37230722 100.55575983 -53.12801743 96.12338257 C-53.78801743 95.13338257 -54.44801743 94.14338257 -55.12801743 93.12338257 Z M99.87198257 123.12338257 C99.21198257 124.44338257 98.55198257 125.76338257 97.87198257 127.12338257 C97.21198257 127.12338257 96.55198257 127.12338257 95.87198257 127.12338257 C95.87198257 127.78338257 95.87198257 128.44338257 95.87198257 129.12338257 C95.2867482 129.39021851 94.70151382 129.65705444 94.09854507 129.93197632 C91.83577885 131.14275474 90.15314686 132.47705247 88.24698257 134.18588257 C86.45385677 135.7871674 85.02541941 137.04666415 82.87198257 138.12338257 C82.87198257 138.78338257 82.87198257 139.44338257 82.87198257 140.12338257 C80.89198257 140.78338257 78.91198257 141.44338257 76.87198257 142.12338257 C76.87198257 142.78338257 76.87198257 143.44338257 76.87198257 144.12338257 C76.13850601 144.40955444 75.40502945 144.69572632 74.64932632 144.99057007 C67.20309531 148.02771071 60.26275934 152.01341541 53.32071304 156.04428101 C49.3040147 158.3570888 45.22916312 160.46859548 41.05948257 162.49838257 C34.78092337 165.57388448 28.79163711 169.02640134 22.81998062 172.66000366 C18.60843513 175.19994855 14.43799579 177.28983359 9.87198257 179.12338257 C9.87198257 179.78338257 9.87198257 180.44338257 9.87198257 181.12338257 C9.06760757 181.28000366 9.06760757 181.28000366 8.24698257 181.43978882 C5.24372652 182.30421285 2.65374048 183.63870884 -0.12801743 185.06088257 C-1.15926743 185.58553101 -2.19051743 186.11017944 -3.25301743 186.65072632 C-4.20176743 187.13670288 -5.15051743 187.62267944 -6.12801743 188.12338257 C-7.46047299 188.79180189 -8.79340328 189.4592837 -10.12801743 190.12338257 C-10.12801743 190.78338257 -10.12801743 191.44338257 -10.12801743 192.12338257 C-10.69987778 192.24181519 -11.27173813 192.3602478 -11.86092758 192.48226929 C-14.29687074 193.17113282 -16.19887561 194.13727657 -18.40145493 195.38119507 C-19.21952621 195.83857056 -20.0375975 196.29594604 -20.88045883 196.7671814 C-22.17862534 197.50037598 -22.17862534 197.50037598 -23.50301743 198.24838257 C-30.60830195 202.21664357 -37.75341104 205.9762171 -45.06161118 209.55697632 C-48.87683779 211.505901 -52.51403918 213.68031053 -56.13973618 215.95932007 C-58.12801743 217.12338257 -58.12801743 217.12338257 -61.12801743 218.12338257 C-61.12801743 218.78338257 -61.12801743 219.44338257 -61.12801743 220.12338257 C-62.02520493 220.33994507 -62.02520493 220.33994507 -62.94051743 220.56088257 C-64.68952147 221.01062647 -66.41478765 221.55230598 -68.12801743 222.12338257 C-68.12801743 222.78338257 -68.12801743 223.44338257 -68.12801743 224.12338257 C-68.69496323 224.2463269 -69.26190903 224.36927124 -69.846035 224.49594116 C-74.08476748 225.66139986 -77.90207886 227.77858944 -81.81551743 229.74838257 C-82.69530258 230.16217163 -83.57508774 230.57596069 -84.48153305 231.00228882 C-89.73699828 233.59668268 -89.73699828 233.59668268 -92.37411118 238.65853882 C-92.11315846 242.33258736 -91.57310397 243.94292493 -89.50301743 246.93588257 C-86.28721371 251.82721018 -83.66263641 256.8522723 -81.12801743 262.12338257 C-80.46801743 262.12338257 -79.80801743 262.12338257 -79.12801743 262.12338257 C-78.92176743 262.90713257 -78.71551743 263.69088257 -78.50301743 264.49838257 C-76.93378703 268.63544451 -74.81527398 272.11750478 -72.46786118 275.85385132 C-71.12801743 278.12338257 -71.12801743 278.12338257 -70.12801743 281.12338257 C-69.46801743 281.12338257 -68.80801743 281.12338257 -68.12801743 281.12338257 C-68.00233383 281.89682007 -68.00233383 281.89682007 -67.87411118 282.68588257 C-66.82388362 286.1169925 -65.00520961 289.05285915 -63.19051743 292.12338257 C-58.77348494 299.6773773 -58.77348494 299.6773773 -57.12801743 303.12338257 C-56.46801743 303.12338257 -55.80801743 303.12338257 -55.12801743 303.12338257 C-55.03520493 303.65834351 -54.94239243 304.19330444 -54.84676743 304.74447632 C-53.89888017 307.88177706 -52.32229975 310.38406732 -50.62801743 313.18588257 C-47.22878078 318.82109249 -47.22878078 318.82109249 -46.12801743 322.12338257 C-45.46801743 322.12338257 -44.80801743 322.12338257 -44.12801743 322.12338257 C-43.94335922 323.00304687 -43.94335922 323.00304687 -43.75497055 323.90048218 C-43.12450403 326.13583953 -42.31743773 327.72449887 -41.09676743 329.68978882 C-40.69844711 330.34012085 -40.3001268 330.99045288 -39.88973618 331.66049194 C-39.47336899 332.32887085 -39.0570018 332.99724976 -38.62801743 333.68588257 C-34.25217944 340.75089653 -34.25217944 340.75089653 -33.12801743 344.12338257 C-32.46801743 344.12338257 -31.80801743 344.12338257 -31.12801743 344.12338257 C-31.02747055 344.66994507 -30.92692368 345.21650757 -30.82332993 345.77963257 C-29.9543817 348.70867152 -28.5741722 351.00244276 -27.00301743 353.62338257 C-26.37911118 354.67139038 -25.75520493 355.71939819 -25.11239243 356.79916382 C-24.1301268 358.4446521 -24.1301268 358.4446521 -23.12801743 360.12338257 C-21.83446272 362.35145416 -20.54270736 364.58057167 -19.25301743 366.81088257 C-17.45530208 370.16202488 -17.45530208 370.16202488 -15.12801743 373.12338257 C-13.68760432 373.22162716 -12.24243068 373.25136651 -10.79867172 373.2527771 C-9.87648346 373.25592926 -8.9542952 373.25908142 -8.00416183 373.2623291 C-6.99702637 373.26030487 -5.9898909 373.25828064 -4.95223618 373.25619507 C-3.39893349 373.25763016 -3.39893349 373.25763016 -1.81425095 373.25909424 C0.38918493 373.25977687 2.59262279 373.25791682 4.79605484 373.25375366 C8.13195859 373.24846583 11.467724 373.2536647 14.8036232 373.26010132 C16.9475037 373.25943939 19.09138412 373.25815586 21.23526382 373.25619507 C22.22013275 373.2582193 23.20500168 373.26024353 24.21971512 373.2623291 C34.69590951 373.2278177 44.70407549 372.53868473 54.80948257 369.68588257 C55.61965836 369.46867554 56.42983414 369.25146851 57.2645607 369.02767944 C61.2422434 367.94285689 65.08212464 366.76948248 68.87198257 365.12338257 C68.87198257 364.46338257 68.87198257 363.80338257 68.87198257 363.12338257 C70.19198257 363.12338257 71.51198257 363.12338257 72.87198257 363.12338257 C72.87198257 362.46338257 72.87198257 361.80338257 72.87198257 361.12338257 C73.42885757 361.02025757 73.98573257 360.91713257 74.55948257 360.81088257 C77.34889268 359.98159848 79.48588898 358.78039201 81.87198257 357.12338257 C81.87198257 356.46338257 81.87198257 355.80338257 81.87198257 355.12338257 C82.45979507 354.87974976 83.04760757 354.63611694 83.65323257 354.38510132 C92.07349987 349.59681551 97.36171427 337.38653376 99.91163826 328.50027466 C100.98470728 324.13083664 101.14690556 320.01292445 101.11249161 315.53060913 C101.11420046 314.70297971 101.11590931 313.87535028 101.11766994 313.02264118 C101.120945 310.26967316 101.10999407 307.51695286 101.09903336 304.76400757 C101.09846881 302.78255723 101.09878664 300.80110647 101.09991837 298.81965637 C101.10049119 293.45456187 101.08874813 288.08955716 101.07477045 282.72448349 C101.06225149 277.1124187 101.06109167 271.50035175 101.05871964 265.88827515 C101.0525083 255.26727317 101.03610214 244.64631246 101.01602066 234.02532864 C100.9936509 221.93106219 100.98266551 209.83679374 100.97262979 197.74251175 C100.95173563 172.86944583 100.91656636 147.99641651 100.87198257 123.12338257 C100.54198257 123.12338257 100.21198257 123.12338257 99.87198257 123.12338257 Z M-93.12801743 145.12338257 C-93.12801743 168.88338257 -93.12801743 192.64338257 -93.12801743 217.12338257 C-88.17801743 214.81338257 -83.22801743 212.50338257 -78.12801743 210.12338257 C-78.12801743 209.46338257 -78.12801743 208.80338257 -78.12801743 208.12338257 C-77.57629868 208.00994507 -77.02457993 207.89650757 -76.45614243 207.77963257 C-63.77690734 204.20561999 -51.270889 195.18398637 -40.00301743 188.49838257 C-35.75482557 185.99910666 -31.42667972 183.73014988 -27.00301743 181.56088257 C-21.86695234 179.04119615 -16.95879787 176.3313017 -12.11629868 173.28744507 C-10.12801743 172.12338257 -10.12801743 172.12338257 -7.12801743 171.12338257 C-7.12801743 170.46338257 -7.12801743 169.80338257 -7.12801743 169.12338257 C-6.13801743 169.12338257 -5.14801743 169.12338257 -4.12801743 169.12338257 C-4.12801743 168.46338257 -4.12801743 167.80338257 -4.12801743 167.12338257 C-3.46801743 167.12338257 -2.80801743 167.12338257 -2.12801743 167.12338257 C0.23468449 163.57932969 0.58531755 161.3516917 0.87198257 157.12338257 C-0.09899683 152.62156899 -1.52648301 150.0046101 -5.12801743 147.12338257 C-9.46054579 144.89052847 -13.54717607 144.85111327 -18.314785 144.89633179 C-19.12506149 144.89603973 -19.93533798 144.89574768 -20.7701683 144.89544678 C-23.43773887 144.89683567 -26.10502714 144.91237605 -28.77254868 144.92807007 C-30.62628146 144.93180177 -32.48001622 144.934648 -34.33375168 144.93664551 C-39.20488589 144.94426962 -44.0759002 144.96390763 -48.94698715 144.98605347 C-54.79571429 145.01014193 -60.64448159 145.0192987 -66.49324417 145.03096008 C-75.37158522 145.05033271 -84.24966338 145.08866383 -93.12801743 145.12338257 Z " fill="#FB7522" transform="translate(326.1280174255371,48.876617431640625)"/>
<path d="M0 0 C20.97247515 -0.141559 41.94482848 -0.25620795 62.91772079 -0.31236839 C71.29995386 -0.33511233 79.68196864 -0.36582362 88.06407261 -0.41845894 C95.28002147 -0.46363824 102.49577421 -0.49095887 109.71186703 -0.49604809 C113.42987088 -0.49915937 117.14738716 -0.51023861 120.86525631 -0.54321098 C124.94299498 -0.57904308 129.01978282 -0.57497795 133.09767246 -0.56762886 C134.27115081 -0.58403671 135.44462915 -0.60044456 136.65366745 -0.61734962 C151.52114048 -0.50656109 164.96273304 5.60991678 175.83839512 15.64086723 C190.14148224 30.94048092 193.50912871 48.51227941 193.24781895 68.69213676 C193.21303078 71.67207674 193.22734865 74.64911576 193.24659824 77.62914848 C193.23971029 79.54192143 193.23004747 81.45468686 193.21730137 83.36742973 C193.22226124 84.24871544 193.22722111 85.13000114 193.23233128 86.03799248 C193.12613691 91.59582415 192.34486714 94.7785244 188.65089512 99.01586723 C187.99089512 99.01586723 187.33089512 99.01586723 186.65089512 99.01586723 C186.65089512 99.67586723 186.65089512 100.33586723 186.65089512 101.01586723 C184.91697561 102.62220738 183.11280412 104.15339593 181.27589512 105.64086723 C180.27816074 106.45813286 179.28042637 107.27539848 178.25245762 108.11742973 C175.65089512 110.01586723 175.65089512 110.01586723 173.65089512 110.01586723 C173.65089512 110.67586723 173.65089512 111.33586723 173.65089512 112.01586723 C170.65089512 114.01586723 170.65089512 114.01586723 167.65089512 114.01586723 C167.65089512 114.67586723 167.65089512 115.33586723 167.65089512 116.01586723 C166.73050449 116.50055473 165.81011387 116.98524223 164.86183262 117.48461723 C157.77932864 121.2301813 150.77752122 125.06804846 143.84694004 129.08862114 C139.91344544 131.3487689 135.91553932 133.40349215 131.83839512 135.39086723 C124.12554468 139.17304644 116.79188565 143.54077301 109.44337559 147.98193169 C104.18359878 151.01586723 104.18359878 151.01586723 100.65089512 151.01586723 C100.65089512 151.67586723 100.65089512 152.33586723 100.65089512 153.01586723 C99.51652012 153.57274223 98.38214512 154.12961723 97.21339512 154.70336723 C93.25711162 156.66742968 89.43883042 158.82543445 85.63136387 161.06274223 C83.65089512 162.01586723 83.65089512 162.01586723 80.65089512 162.01586723 C80.65089512 162.67586723 80.65089512 163.33586723 80.65089512 164.01586723 C79.92386387 164.3677813 79.19683262 164.71969536 78.44777012 165.08227348 C73.1101276 167.70319282 67.88571526 170.40951211 62.77589512 173.45336723 C58.44679088 176.02589776 54.0479611 178.36717175 49.52589512 180.57836723 C44.36523092 183.10440663 39.46950371 185.84019145 34.63917637 188.94946098 C32.65089512 190.01586723 32.65089512 190.01586723 29.65089512 190.01586723 C29.65089512 190.67586723 29.65089512 191.33586723 29.65089512 192.01586723 C27.00350596 193.47649574 25.75641178 194.01586723 22.65089512 194.01586723 C22.65089512 194.67586723 22.65089512 195.33586723 22.65089512 196.01586723 C21.50814121 196.57854301 21.50814121 196.57854301 20.34230137 197.15258598 C14.59846038 199.99940855 8.93349913 202.90621874 3.39308262 206.13305473 C1.65089512 207.01586723 1.65089512 207.01586723 -0.34910488 207.01586723 C-1.00910488 208.33586723 -1.66910488 209.65586723 -2.34910488 211.01586723 C-2.67910488 211.01586723 -3.00910488 211.01586723 -3.34910488 211.01586723 C-3.34910488 204.08586723 -3.34910488 197.15586723 -3.34910488 190.01586723 C-2.68910488 190.01586723 -2.02910488 190.01586723 -1.34910488 190.01586723 C-1.34910488 189.35586723 -1.34910488 188.69586723 -1.34910488 188.01586723 C0.41736082 187.00817203 2.18923335 186.00995009 3.96339512 185.01586723 C4.94952793 184.45899223 5.93566074 183.90211723 6.95167637 183.32836723 C9.65089512 182.01586723 9.65089512 182.01586723 12.65089512 182.01586723 C12.65089512 181.35586723 12.65089512 180.69586723 12.65089512 180.01586723 C13.22194981 179.73614067 13.79300449 179.45641411 14.38136387 179.16821098 C25.17398718 173.83195367 35.66094721 168.02599054 46.08839512 162.01586723 C53.16347422 157.93873498 60.2700936 154.11205619 67.61964512 150.55102348 C71.44654788 148.61291422 75.05745795 146.40290326 78.66261387 144.08227348 C80.65089512 143.01586723 80.65089512 143.01586723 83.65089512 143.01586723 C83.65089512 142.35586723 83.65089512 141.69586723 83.65089512 141.01586723 C84.64089512 141.01586723 85.63089512 141.01586723 86.65089512 141.01586723 C86.65089512 140.35586723 86.65089512 139.69586723 86.65089512 139.01586723 C87.31089512 139.01586723 87.97089512 139.01586723 88.65089512 139.01586723 C90.4084949 132.41810807 91.29331289 127.44958008 88.65089512 121.01586723 C86.2974277 119.45737172 86.2974277 119.45737172 83.65089512 119.01586723 C82.66089512 118.68586723 81.67089512 118.35586723 80.65089512 118.01586723 C80.65089512 117.35586723 80.65089512 116.69586723 80.65089512 116.01586723 C52.93089512 116.01586723 25.21089512 116.01586723 -3.34910488 116.01586723 C-3.34910488 108.09586723 -3.34910488 100.17586723 -3.34910488 92.01586723 C-38.98910488 92.01586723 -74.62910488 92.01586723 -111.34910488 92.01586723 C-108.45088487 87.66853722 -105.55387855 83.74796838 -102.16160488 79.82836723 C-101.18173506 78.68313515 -100.202579 77.53729202 -99.22410488 76.39086723 C-98.73941738 75.82367973 -98.25472988 75.25649223 -97.75535488 74.67211723 C-91.46005169 67.25764903 -85.36831956 59.65563971 -79.34910488 52.01586723 C-78.75871426 51.36489067 -78.16832363 50.71391411 -77.56004238 50.04321098 C-76.11898077 48.05055325 -76.11898077 48.05055325 -76.45066738 45.51196098 C-77.47249229 42.67306483 -78.62839212 41.23823446 -80.72410488 39.07836723 C-84.23738715 35.30252651 -87.45361444 31.4077544 -90.59910488 27.32836723 C-95.01840047 21.60743938 -99.63646719 16.10264463 -104.46531582 10.72216606 C-107.21027631 7.60335489 -108.92454345 4.89495663 -110.34910488 1.01586723 C-75.11636465 0.58403858 -39.88285241 0.26680909 -4.648283 0.03124619 C-3.09885499 0.02088223 -1.54942733 0.01046574 0 0 Z M57.65089512 15.01586723 C57.65089512 15.67586723 57.65089512 16.33586723 57.65089512 17.01586723 C57.01152012 17.28399223 56.37214512 17.55211723 55.71339512 17.82836723 C53.31957826 18.90254476 53.31957826 18.90254476 52.65089512 22.01586723 C51.99089512 22.01586723 51.33089512 22.01586723 50.65089512 22.01586723 C45.80660896 29.96065119 45.80660896 29.96065119 44.65089512 39.01586723 C44.92804356 38.44481255 45.20519199 37.87375786 45.49073887 37.28539848 C50.59878026 27.2929 57.75928668 19.57614832 68.51417637 15.67602348 C77.6279384 13.75793409 89.49178356 13.03398106 97.81105137 17.76196098 C98.41819981 18.17575005 99.02534824 18.58953911 99.65089512 19.01586723 C100.33023106 19.4399688 101.00956699 19.86407036 101.70948887 20.30102348 C108.13974693 24.66484701 112.38658698 30.61940503 116.65089512 37.01586723 C116.36195013 30.37013256 113.65554224 25.29520309 109.65089512 20.01586723 C108.99089512 20.01586723 108.33089512 20.01586723 107.65089512 20.01586723 C107.65089512 19.35586723 107.65089512 18.69586723 107.65089512 18.01586723 C105.01404765 15.61766418 105.01404765 15.61766418 101.65089512 15.01586723 C101.65089512 14.35586723 101.65089512 13.69586723 101.65089512 13.01586723 C100.66089512 13.01586723 99.67089512 13.01586723 98.65089512 13.01586723 C98.65089512 12.35586723 98.65089512 11.69586723 98.65089512 11.01586723 C84.52991314 6.12699557 70.00682673 4.42506871 57.65089512 15.01586723 Z M63.52589512 34.89086723 C61.43035457 36.79348885 61.43035457 36.79348885 61.65089512 39.01586723 C60.99089512 39.01586723 60.33089512 39.01586723 59.65089512 39.01586723 C55.54972887 48.97584242 54.67743254 55.60874821 57.65089512 66.01586723 C58.31089512 66.01586723 58.97089512 66.01586723 59.65089512 66.01586723 C60.31089512 67.99586723 60.97089512 69.97586723 61.65089512 72.01586723 C62.31089512 72.01586723 62.97089512 72.01586723 63.65089512 72.01586723 C63.65089512 72.67586723 63.65089512 73.33586723 63.65089512 74.01586723 C65.30089512 74.67586723 66.95089512 75.33586723 68.65089512 76.01586723 C67.99089512 75.02586723 67.33089512 74.03586723 66.65089512 73.01586723 C65.99089512 73.01586723 65.33089512 73.01586723 64.65089512 73.01586723 C64.38277012 72.14961723 64.11464512 71.28336723 63.83839512 70.39086723 C62.80238943 67.04240001 62.80238943 67.04240001 61.02589512 64.45336723 C57.57866019 55.83527991 59.45249468 46.44974458 62.65089512 38.01586723 C63.31089512 38.01586723 63.97089512 38.01586723 64.65089512 38.01586723 C66.29556252 35.55260012 66.29556252 35.55260012 67.65089512 33.01586723 C65.42851674 32.79532669 65.42851674 32.79532669 63.52589512 34.89086723 Z M96.65089512 37.01586723 C97.31089512 37.67586723 97.97089512 38.33586723 98.65089512 39.01586723 C98.65089512 38.35586723 98.65089512 37.69586723 98.65089512 37.01586723 C97.99089512 37.01586723 97.33089512 37.01586723 96.65089512 37.01586723 Z M98.65089512 39.01586723 C98.93964512 39.62172661 99.22839512 40.22758598 99.52589512 40.85180473 C102.66643182 47.9398216 104.21296025 54.42730091 101.65089512 61.95336723 C101.15589512 62.97430473 101.15589512 62.97430473 100.65089512 64.01586723 C100.65089512 65.00586723 100.65089512 65.99586723 100.65089512 67.01586723 C99.99089512 67.01586723 99.33089512 67.01586723 98.65089512 67.01586723 C98.32089512 68.00586723 97.99089512 68.99586723 97.65089512 70.01586723 C98.31089512 70.01586723 98.97089512 70.01586723 99.65089512 70.01586723 C99.65089512 69.35586723 99.65089512 68.69586723 99.65089512 68.01586723 C100.31089512 68.01586723 100.97089512 68.01586723 101.65089512 68.01586723 C101.65089512 67.35586723 101.65089512 66.69586723 101.65089512 66.01586723 C102.31089512 66.01586723 102.97089512 66.01586723 103.65089512 66.01586723 C106.2946621 59.0759789 107.93001999 53.609599 105.33839512 46.32836723 C103.94682608 43.59676874 102.72127416 41.26627924 100.65089512 39.01586723 C99.99089512 39.01586723 99.33089512 39.01586723 98.65089512 39.01586723 Z M117.65089512 39.01586723 C118.65089512 42.01586723 118.65089512 42.01586723 118.65089512 42.01586723 Z M33.65089512 59.01586723 C34.65089512 63.01586723 34.65089512 63.01586723 34.65089512 63.01586723 Z M34.65089512 63.01586723 C35.65089512 65.01586723 35.65089512 65.01586723 35.65089512 65.01586723 Z M126.65089512 63.01586723 C127.65089512 66.01586723 127.65089512 66.01586723 127.65089512 66.01586723 Z M35.65089512 65.01586723 C34.93916766 70.25214785 37.36436703 73.56257451 40.02589512 77.82836723 C40.64464512 78.86767387 40.64464512 78.86767387 41.27589512 79.92797661 C42.3367885 81.66476173 43.4873283 83.34612785 44.65089512 85.01586723 C45.31089512 85.01586723 45.97089512 85.01586723 46.65089512 85.01586723 C46.65089512 85.67586723 46.65089512 86.33586723 46.65089512 87.01586723 C47.31089512 87.01586723 47.97089512 87.01586723 48.65089512 87.01586723 C48.65089512 87.67586723 48.65089512 88.33586723 48.65089512 89.01586723 C59.17041042 98.28034275 70.86502451 101.16620388 84.65089512 101.01586723 C91.24508024 100.35015141 97.44320024 98.26503204 103.65089512 96.01586723 C103.65089512 95.35586723 103.65089512 94.69586723 103.65089512 94.01586723 C104.20390293 93.94110161 104.75691074 93.86633598 105.32667637 93.78930473 C108.5129361 92.72900318 110.36713612 90.89675801 112.83839512 88.64086723 C113.71882481 87.84938286 114.59925449 87.05789848 115.50636387 86.24242973 C117.85358505 84.12505131 117.85358505 84.12505131 118.65089512 81.01586723 C119.31089512 81.01586723 119.97089512 81.01586723 120.65089512 81.01586723 C121.68380353 79.0847776 122.70188184 77.14574923 123.71339512 75.20336723 C124.28187168 74.12442192 124.85034824 73.04547661 125.43605137 71.93383598 C127.02005301 69.0290648 127.02005301 69.0290648 125.65089512 66.01586723 C125.24999668 66.71711723 124.84909824 67.41836723 124.43605137 68.14086723 C116.91974545 80.68508753 106.8092882 88.51915631 92.84620762 92.89477348 C90.43741127 93.43131223 88.10641607 93.78341688 85.65089512 94.01586723 C84.97413731 94.09707817 84.29737949 94.17828911 83.60011387 94.26196098 C78.40020226 94.58511933 73.49825332 93.46246192 68.46339512 92.26586723 C67.78583164 92.10908501 67.10826817 91.95230278 66.41017246 91.79076958 C61.80833603 90.61292531 58.53099985 88.68870349 54.65089512 86.01586723 C53.66089512 86.01586723 52.67089512 86.01586723 51.65089512 86.01586723 C51.65089512 85.35586723 51.65089512 84.69586723 51.65089512 84.01586723 C50.99089512 84.01586723 50.33089512 84.01586723 49.65089512 84.01586723 C49.65089512 83.35586723 49.65089512 82.69586723 49.65089512 82.01586723 C48.78464512 81.33524223 47.91839512 80.65461723 47.02589512 79.95336723 C42.89558179 76.674564 40.40660532 72.44824449 37.65089512 68.01586723 C36.99089512 67.02586723 36.33089512 66.03586723 35.65089512 65.01586723 Z " fill="#060505" transform="translate(235.34910488128662,76.98413276672363)"/>
<path d="M0 0 C0.09304886 11.64033803 0.16394118 23.28058627 0.20724869 34.92122173 C0.22804356 40.32757985 0.25621196 45.73368183 0.30175781 51.13989258 C0.34550601 56.36596475 0.36919788 61.59179193 0.37950897 66.81803322 C0.38684865 68.80295475 0.40118005 70.78786424 0.42292023 72.77268028 C0.63592074 93.04167641 -3.31435615 108.64163079 -17.765625 123.8203125 C-25.03502593 130.91179103 -34.27875541 136.42762734 -44.359375 138.48046875 C-45.17148438 138.73763672 -45.17148438 138.73763672 -46 139 C-46.9300889 141.7902667 -47.18698769 143.76529542 -47.31640625 146.66796875 C-47.37924805 148.00698242 -47.37924805 148.00698242 -47.44335938 149.37304688 C-47.48267578 150.30181641 -47.52199219 151.23058594 -47.5625 152.1875 C-47.62727539 153.59805664 -47.62727539 153.59805664 -47.69335938 155.03710938 C-47.79938665 157.35792854 -47.90145029 159.67885325 -48 162 C-50.30859375 161.7890625 -50.30859375 161.7890625 -53 161 C-54.66015625 158.9609375 -54.66015625 158.9609375 -56.0625 156.375 C-56.81080078 155.02341797 -56.81080078 155.02341797 -57.57421875 153.64453125 C-58.04472656 152.77183594 -58.51523438 151.89914062 -59 151 C-59.78931928 149.68608698 -60.58062345 148.37336165 -61.375 147.0625 C-63 144 -63 144 -63 141 C-63.66 141 -64.32 141 -65 141 C-66.31799019 138.58618654 -67.62950918 136.16922404 -68.9375 133.75 C-69.31068359 133.06808594 -69.68386719 132.38617188 -70.06835938 131.68359375 C-70.42607422 131.01972656 -70.78378906 130.35585938 -71.15234375 129.671875 C-71.48226318 129.0644043 -71.81218262 128.45693359 -72.15209961 127.83105469 C-73.04197691 125.90935018 -73.55141511 124.06548422 -74 122 C-74.66 122 -75.32 122 -76 122 C-76.51046875 121.05253906 -76.51046875 121.05253906 -77.03125 120.0859375 C-82.18563645 110.57225613 -87.45459429 101.13211041 -93.109375 91.90625 C-93.64868652 91.02251709 -94.18799805 90.13878418 -94.74365234 89.22827148 C-95.80964279 87.48634546 -96.88260534 85.74866181 -97.96337891 84.01586914 C-102.71360181 76.24622676 -104.97103204 70.11198419 -103 61 C-100.11664523 52.76184353 -96.12203561 48.64155713 -88.625 44.6875 C-87.196168 43.91228089 -85.76779176 43.13622122 -84.33984375 42.359375 C-83.61909668 41.97072266 -82.89834961 41.58207031 -82.15576172 41.18164062 C-80.06302388 40.03454537 -77.9993498 38.8488663 -75.94140625 37.640625 C-75.30831543 37.26977783 -74.67522461 36.89893066 -74.02294922 36.5168457 C-72.27849487 35.49101002 -70.53568565 34.46237829 -68.79296875 33.43359375 C-66 32 -66 32 -63 32 C-63 31.34 -63 30.68 -63 30 C-61.68 30 -60.36 30 -59 30 C-59 29.34 -59 28.68 -59 28 C-58.39849121 27.70794678 -57.79698242 27.41589355 -57.17724609 27.11499023 C-50.84404236 23.99974858 -44.72337078 20.61174163 -38.625 17.0625 C-18.23435918 5.31022329 -18.23435918 5.31022329 -12 4 C-12 3.34 -12 2.68 -12 2 C-10.75579353 1.4654744 -9.50429064 0.94791389 -8.25 0.4375 C-7.20585937 0.00244141 -7.20585937 0.00244141 -6.140625 -0.44140625 C-3.67732713 -1.08420113 -2.40641843 -0.6897518 0 0 Z " fill="#040303" transform="translate(206,285)"/>
<path d="M0 0 C4.05904849 1.48480345 5.20981107 3.66227156 7.125 7.4375 C8.65667727 10.41752495 10.13905447 13.20858171 12 16 C12 16.99 12 17.98 12 19 C12.66 19 13.32 19 14 19 C15.50787377 21.59988552 17.00645461 24.20440197 18.5 26.8125 C18.92925781 27.55048828 19.35851562 28.28847656 19.80078125 29.04882812 C20.20683594 29.76103516 20.61289063 30.47324219 21.03125 31.20703125 C21.59682617 32.18893433 21.59682617 32.18893433 22.17382812 33.19067383 C23 35 23 35 23 38 C23.66 38 24.32 38 25 38 C25.37511719 38.70125 25.75023437 39.4025 26.13671875 40.125 C28.94820008 45.33721728 31.80694216 50.43042988 35.1171875 55.34375 C36 57 36 57 36 60 C36.66 60 37.32 60 38 60 C38.39832031 60.73605469 38.79664063 61.47210938 39.20703125 62.23046875 C39.73683594 63.20628906 40.26664062 64.18210937 40.8125 65.1875 C41.33457031 66.15042969 41.85664063 67.11335938 42.39453125 68.10546875 C43.44170877 69.99344574 44.54185688 71.85326887 45.69921875 73.67578125 C47 76 47 76 47 79 C47.66 79 48.32 79 49 79 C49.37511719 79.70125 49.75023437 80.4025 50.13671875 81.125 C52.94820008 86.33721728 55.80694216 91.43042988 59.1171875 96.34375 C60 98 60 98 60 101 C60.66 101 61.32 101 62 101 C62.37511719 101.70125 62.75023437 102.4025 63.13671875 103.125 C66.24286563 108.88349901 69.50020328 114.47523728 73 120 C77 126.35830619 77 126.35830619 77 131 C44.66 131 12.32 131 -21 131 C-19.51948927 128.03897854 -18.1278677 125.66536061 -16.25 123 C-7.14643537 109.38906068 -1.90499368 94.39400367 -1.81054688 77.96264648 C-1.80225357 77.17976257 -1.79396027 76.39687866 -1.78541565 75.590271 C-1.7680911 73.89939264 -1.75290398 72.2084913 -1.73963928 70.51757622 C-1.71850352 67.83986743 -1.69149133 65.162274 -1.66296387 62.4846344 C-1.59334619 55.83718669 -1.53377399 49.1896559 -1.47393799 42.54211426 C-1.42293203 36.91719168 -1.36808938 31.29233201 -1.30812073 25.66749763 C-1.28161575 23.03245558 -1.26076257 20.39740733 -1.2401123 17.76231384 C-1.22350494 16.14419267 -1.20663272 14.52607418 -1.18945312 12.90795898 C-1.18526871 12.17795181 -1.18108429 11.44794464 -1.17677307 10.69581604 C-1.13155307 7.01179137 -0.87226873 3.58398514 0 0 Z " fill="#050404" transform="translate(233,292)"/>
<path d="M0 0 C35.31 0 70.62 0 107 0 C107 0.33 107 0.66 107 1 C72.35 1 37.7 1 2 1 C2 47.2 2 93.4 2 141 C34.67 141 67.34 141 101 141 C101 141.66 101 142.32 101 143 C67.67 143 34.34 143 0 143 C0 95.81 0 48.62 0 0 Z " fill="#E07634" transform="translate(105,50)"/>
<path d="M0 0 C6.60104024 6.60104024 3.42507614 30.44130594 3.5859375 39.54296875 C3.60751293 40.73634542 3.62908836 41.9297221 3.6513176 43.1592617 C4.30429494 81.11633102 3.92980844 119.08174354 3.68318725 157.04119194 C3.62960004 165.37305506 3.58446811 173.70494817 3.54135668 182.03687125 C3.49394333 191.16995015 3.44123978 200.30299095 3.38599777 209.43602562 C3.36284441 213.27500897 3.34143519 217.11399588 3.32149124 220.95299721 C3.29789551 225.44428903 3.26961419 229.93552835 3.23780251 234.42676926 C3.22694007 236.06173798 3.2176217 237.69671787 3.21003914 239.33170509 C3.12288745 257.64609156 2.35663408 274.70258408 -7 291 C-7.33 291 -7.66 291 -8 291 C-7.67 288.69 -7.34 286.38 -7 284 C-6.34 284 -5.68 284 -5 284 C-5 282.35 -5 280.7 -5 279 C-4.34 279 -3.68 279 -3 279 C-3.0309375 277.5459375 -3.0309375 277.5459375 -3.0625 276.0625 C-3 273 -3 273 -2 272 C-1.92773498 270.14712498 -1.9161878 268.29166122 -1.9375 266.4375 C-1.94652344 265.42558594 -1.95554687 264.41367187 -1.96484375 263.37109375 C-1.97644531 262.58863281 -1.98804688 261.80617188 -2 261 C-1.01 260.67 -0.02 260.34 1 260 C0.67 174.2 0.34 88.4 0 0 Z " fill="#F3A06D" transform="translate(452,115)"/>
<path d="M0 0 C0.33 0 0.66 0 1 0 C1 82.17 1 164.34 1 249 C0.34 249.33 -0.32 249.66 -1 250 C-1.69093896 252.57951874 -1.69093896 252.57951874 -2.125 255.5625 C-2.29257812 256.57441406 -2.46015625 257.58632813 -2.6328125 258.62890625 C-2.81457031 259.80259766 -2.81457031 259.80259766 -3 261 C-3.99 261.33 -4.98 261.66 -6 262 C-5.52396226 259.87429688 -5.04407402 257.74945573 -4.5625 255.625 C-4.29566406 254.44164062 -4.02882813 253.25828125 -3.75390625 252.0390625 C-3 249 -3 249 -2 247 C-1.90646522 244.3570037 -1.87428444 241.74060575 -1.88647461 239.09751892 C-1.88632575 238.27163806 -1.88617689 237.4457572 -1.88602352 236.59484965 C-1.88672114 233.81182416 -1.89457746 231.0288637 -1.90234375 228.24584961 C-1.90426174 226.25705502 -1.9057261 224.26825996 -1.9067688 222.27946472 C-1.90993603 217.98947703 -1.91621386 213.69950889 -1.92483521 209.40952873 C-1.93831546 202.63349934 -1.94424268 195.85747653 -1.94897461 189.08143616 C-1.96009172 174.70011539 -1.97963076 160.31881019 -2 145.9375 C-2.02198769 130.41080361 -2.04257233 114.88411358 -2.05341816 99.35740477 C-2.05841798 92.61383384 -2.06830334 85.8702926 -2.08184814 79.12673366 C-2.08927784 74.94102712 -2.09261738 70.75532475 -2.0948143 66.5696125 C-2.09669535 64.62044657 -2.10031402 62.67128146 -2.10574722 60.72212219 C-2.11290166 58.07322774 -2.11400374 55.42439982 -2.11352539 52.77549744 C-2.11712035 51.99380296 -2.12071531 51.21210849 -2.12441921 50.4067263 C-2.11409285 45.11409285 -2.11409285 45.11409285 -1 44 C-0.87802192 42.61949142 -0.82231101 41.23302353 -0.79467773 39.84741211 C-0.77473251 38.96657455 -0.75478729 38.085737 -0.73423767 37.1782074 C-0.71752518 36.22092239 -0.70081268 35.26363739 -0.68359375 34.27734375 C-0.66281265 33.30213272 -0.64203156 32.32692169 -0.62062073 31.32215881 C-0.55501588 28.1940137 -0.49618972 25.06578178 -0.4375 21.9375 C-0.39432517 19.8222565 -0.35071123 17.70702191 -0.30664062 15.59179688 C-0.19932345 10.39462413 -0.0975778 5.19736423 0 0 Z " fill="#F3A97B" transform="translate(428,126)"/>
<path d="M0 0 C-5.3899236 5.3899236 -15.02666916 4.30514822 -22.10375977 4.31884766 C-23.303003 4.32889045 -24.50224623 4.33893324 -25.73783016 4.34928036 C-29.03104644 4.37484991 -32.32416882 4.39174324 -35.61745453 4.40470433 C-39.13494969 4.42057611 -42.65236318 4.44745136 -46.1697998 4.47288513 C-52.95796181 4.52015624 -59.74614065 4.55684305 -66.53438628 4.58967119 C-71.99177327 4.61632365 -77.4491186 4.64745399 -82.90646362 4.68161011 C-83.67866121 4.68643491 -84.45085881 4.6912597 -85.24645633 4.69623071 C-86.40553759 4.70347328 -86.40553759 4.70347328 -87.58803463 4.71086216 C-136.39170845 5.01568779 -185.19546451 5.13793218 -234 5 C-234 4.01 -234 3.02 -234 2 C-232.89986667 2.00092179 -231.79973333 2.00184359 -230.66626263 2.00279331 C-203.9271874 2.02496926 -177.18811335 2.04141453 -150.44903088 2.05181217 C-137.51834474 2.05697373 -124.58766467 2.06401377 -111.65698242 2.07543945 C-100.38976087 2.08539056 -89.12254371 2.09185445 -77.85531789 2.09408849 C-71.88657895 2.09539487 -65.91785258 2.09847615 -59.94911766 2.10573006 C-54.33581772 2.11249699 -48.72253558 2.11461557 -43.10923195 2.11310768 C-41.04480518 2.1133837 -38.98037784 2.11538484 -36.91595459 2.11920547 C-34.10562462 2.12415319 -31.29536255 2.12299424 -28.48503113 2.12025452 C-27.24914451 2.12462378 -27.24914451 2.12462378 -25.98829049 2.12908131 C-22.72999804 2.12044776 -20.1136941 2.03789803 -17 1 C-11.35627139 0.28235162 -5.69076181 -0.15380437 0 0 Z " fill="#EA9158" transform="translate(394,446)"/>
<path d="M0 0 C6.56362168 0.0057842 13.12720323 0.00234537 19.69082355 -0.00357246 C24.80814416 -0.00718651 29.92545521 -0.00603709 35.04277611 -0.00344467 C37.46554761 -0.00278225 39.88832001 -0.00357962 42.31109047 -0.00592422 C45.67437687 -0.00847436 49.0375974 -0.00458089 52.40087891 0.00097656 C53.37899033 -0.00104767 54.35710175 -0.0030719 55.36485291 -0.00515747 C64.04987 0.02131807 72.29941319 0.45581389 80.59887695 3.19287109 C82.27336914 3.73621094 82.27336914 3.73621094 83.98168945 4.29052734 C84.80411133 4.56767578 85.6265332 4.84482422 86.47387695 5.13037109 C86.47387695 5.46037109 86.47387695 5.79037109 86.47387695 6.13037109 C82.23208392 6.40700977 79.19545975 6.11938218 75.20498657 4.64567566 C68.12806394 2.46377399 60.97799282 2.68947265 53.65112305 2.69799805 C52.07330566 2.68896669 50.49549526 2.67863612 48.91769409 2.66711426 C44.66220476 2.63967931 40.40684905 2.63027823 36.15128279 2.62426019 C31.69362627 2.61484114 27.23606818 2.58863504 22.7784729 2.56425476 C14.34982536 2.52068283 5.92119702 2.49207882 -2.50752866 2.46893138 C-12.1086022 2.44182966 -21.70957625 2.39792132 -31.31057858 2.35264266 C-51.0490398 2.25992976 -70.78753078 2.18818803 -90.52612305 2.13037109 C-90.52612305 1.80037109 -90.52612305 1.47037109 -90.52612305 1.13037109 C-60.35109168 0.10336021 -30.19044547 -0.02698377 0 0 Z " fill="#EF9760" transform="translate(314.526123046875,48.86962890625)"/>
<path d="M0 0 C0.33 0.99 0.66 1.98 1 3 C-0.4375 5.1875 -0.4375 5.1875 -2 7 C9.55234255 7.02314573 21.1046796 7.04092651 32.6570406 7.05181217 C38.02096181 7.0570361 43.38486719 7.0641249 48.7487793 7.07543945 C53.92291101 7.08628568 59.09702746 7.09228054 64.27116966 7.09487724 C66.24757312 7.09672835 68.22397572 7.10034297 70.2003727 7.10573006 C72.9634343 7.11296346 75.72643244 7.11398996 78.48950195 7.11352539 C79.31093185 7.11712067 80.13236176 7.12071594 80.97868347 7.12442017 C84.24744175 7.11845265 86.87639203 7.04120266 90 6 C90.33 5.34 90.66 4.68 91 4 C91.495 6.475 91.495 6.475 92 9 C59.66 9 27.32 9 -6 9 C-4.25618453 5.51236907 -2.47193291 2.96631949 0 0 Z " fill="#2F0A05" transform="translate(218,414)"/>
<path d="M0 0 C0.33 0 0.66 0 1 0 C1.01981934 0.61520508 1.03963867 1.23041016 1.06005859 1.86425781 C1.15549727 4.65992542 1.26509955 7.4548651 1.375 10.25 C1.4059375 11.21808594 1.436875 12.18617188 1.46875 13.18359375 C1.50742188 14.11816406 1.54609375 15.05273438 1.5859375 16.015625 C1.6173584 16.87446289 1.6487793 17.73330078 1.68115234 18.61816406 C1.84519749 21.02782976 1.84519749 21.02782976 3.15087891 22.93652344 C4 25 4 25 3.07299805 27.62167358 C1.83661506 31.51441628 1.69300887 35.07793518 1.68115234 39.11669922 C1.67110672 39.90761459 1.6610611 40.69852997 1.65071106 41.51341248 C1.61998295 44.11049721 1.60287298 46.70747933 1.5859375 49.3046875 C1.56721749 51.11216101 1.54764346 52.91962587 1.5272522 54.7270813 C1.47601297 59.47150557 1.43634337 64.21595816 1.39910889 68.96051025 C1.3590177 73.80707759 1.30794872 78.65352801 1.2578125 83.5 C1.16115044 92.99991776 1.07671462 102.49990168 1 112 C0.67 112 0.34 112 0 112 C0 75.04 0 38.08 0 0 Z " fill="#D06B2E" transform="translate(231,266)"/>
<path d="M0 0 C0.99 0.33 1.98 0.66 3 1 C-12.01270385 11.73543575 -31.25270831 9.49703462 -48.83947754 9.2746582 C-52.47361878 9.23318148 -56.10787603 9.21535325 -59.7421875 9.1953125 C-66.82840288 9.15286305 -73.91415532 9.08491461 -81 9 C-80.67 8.34 -80.34 7.68 -80 7 C-79.13794952 7.00333092 -79.13794952 7.00333092 -78.25848389 7.00672913 C-72.22278471 7.02902484 -66.18709742 7.04400685 -60.15136719 7.05493164 C-57.9052686 7.05992942 -55.6591732 7.06672987 -53.41308594 7.07543945 C-50.16600754 7.08770619 -46.91897252 7.09327401 -43.671875 7.09765625 C-42.68386902 7.10281754 -41.69586304 7.10797882 -40.67791748 7.11329651 C-30.09033707 7.11412944 -20.02472938 6.37552718 -9.8125 3.5 C-8.54696289 3.16162109 -8.54696289 3.16162109 -7.25585938 2.81640625 C-3.31498585 2.00158585 -3.31498585 2.00158585 0 0 Z " fill="#F7B181" transform="translate(391,414)"/>
<path d="M0 0 C1.32 0.66 2.64 1.32 4 2 C4 2.99 4 3.98 4 5 C3.51391769 5.40974564 3.02783539 5.81949127 2.52702332 6.24165344 C0.13211576 8.99935689 0.59810845 11.54282509 0.56762695 15.13354492 C0.5574353 15.85574722 0.54724365 16.57794952 0.53674316 17.32203674 C0.50655805 19.70825909 0.49733913 22.09408039 0.48828125 24.48046875 C0.47143859 26.13529297 0.45328891 27.79010436 0.43388367 29.44490051 C0.38633241 33.79975375 0.35655636 38.15455499 0.33044434 42.50958252 C0.30066456 46.95375845 0.25412541 51.39775513 0.20898438 55.84179688 C0.12289299 64.56110996 0.05557385 73.28043927 0 82 C-0.33 82 -0.66 82 -1 82 C-1.02317862 72.04680532 -1.04094327 62.09361707 -1.05181217 52.14040089 C-1.0570289 47.51863972 -1.06410463 42.89689702 -1.07543945 38.27514648 C-1.08631127 33.81422939 -1.09228596 29.35333006 -1.09487724 24.89240074 C-1.09672374 23.19117643 -1.10032947 21.48995308 -1.10573006 19.78873634 C-1.11299745 17.40446502 -1.11398853 15.02026696 -1.11352539 12.63598633 C-1.11712067 11.93395584 -1.12071594 11.23192535 -1.12442017 10.50862122 C-1.11679817 6.87820457 -0.86036794 3.53072332 0 0 Z " fill="#3B1400" transform="translate(233,292)"/>
<path d="M0 0 C0.33 0.66 0.66 1.32 1 2 C-2.01447835 4.57075841 -4.35979771 5.52207066 -8.25 6.1875 C-9.58804688 6.42533203 -9.58804688 6.42533203 -10.953125 6.66796875 C-11.96632812 6.83232422 -11.96632812 6.83232422 -13 7 C-13.02505615 7.68626465 -13.0501123 8.3725293 -13.07592773 9.07958984 C-13.19171427 12.17825817 -13.31451885 15.27660923 -13.4375 18.375 C-13.49647461 19.99535156 -13.49647461 19.99535156 -13.55664062 21.6484375 C-13.59853516 22.6796875 -13.64042969 23.7109375 -13.68359375 24.7734375 C-13.72025146 25.72653809 -13.75690918 26.67963867 -13.79467773 27.66162109 C-14 30 -14 30 -15 32 C-15.99 32 -16.98 32 -18 32 C-18 31.34 -18 30.68 -18 30 C-18.66 30 -19.32 30 -20 30 C-19.67 29.34 -19.34 28.68 -19 28 C-18.01 28.33 -17.02 28.66 -16 29 C-16.01047363 28.41508789 -16.02094727 27.83017578 -16.03173828 27.22753906 C-16.07340264 24.56840337 -16.09935901 21.90933647 -16.125 19.25 C-16.14175781 18.32960938 -16.15851563 17.40921875 -16.17578125 16.4609375 C-16.18544922 15.12675781 -16.18544922 15.12675781 -16.1953125 13.765625 C-16.20578613 12.94868164 -16.21625977 12.13173828 -16.22705078 11.29003906 C-15.97098895 8.70739393 -15.43370346 7.15995653 -14 5 C-11.58988748 3.9018672 -9.37995985 3.03869033 -6.875 2.25 C-6.21628906 2.02957031 -5.55757812 1.80914062 -4.87890625 1.58203125 C-3.25697687 1.04138812 -1.62901493 0.51890293 0 0 Z " fill="#EB7932" transform="translate(174,418)"/>
<path d="M0 0 C0.33 0 0.66 0 1 0 C1 18.15 1 36.3 1 55 C0.01 55.495 0.01 55.495 -1 56 C-1.69093896 58.57951874 -1.69093896 58.57951874 -2.125 61.5625 C-2.29257812 62.57441406 -2.46015625 63.58632813 -2.6328125 64.62890625 C-2.75398438 65.41136719 -2.87515625 66.19382812 -3 67 C-4.485 67.495 -4.485 67.495 -6 68 C-5.54543566 65.95749089 -5.08617174 63.9160274 -4.625 61.875 C-4.24214844 60.16957031 -4.24214844 60.16957031 -3.8515625 58.4296875 C-3 55 -3 55 -1.97265625 52.4921875 C-0.59805665 47.5568781 -0.64255488 42.79694859 -0.5859375 37.6953125 C-0.56657135 36.61619598 -0.5472052 35.53707947 -0.5272522 34.42526245 C-0.46766058 30.99192105 -0.42115239 27.55854576 -0.375 24.125 C-0.33680147 21.79165236 -0.29774865 19.45831854 -0.2578125 17.125 C-0.16197583 11.41678968 -0.07686888 5.70849556 0 0 Z " fill="#E77E3B" transform="translate(428,320)"/>
<path d="M0 0 C0.33 0 0.66 0 1 0 C1.89237879 13.31131691 -1.37603276 25.46235215 -8 37 C-8.33 37 -8.66 37 -9 37 C-8.67 34.69 -8.34 32.38 -8 30 C-7.34 30 -6.68 30 -6 30 C-6 28.35 -6 26.7 -6 25 C-5.34 25 -4.68 25 -4 25 C-4.020625 24.030625 -4.04125 23.06125 -4.0625 22.0625 C-4 19 -4 19 -3 18 C-2.92773498 16.14712498 -2.9161878 14.29166122 -2.9375 12.4375 C-2.94652344 11.42558594 -2.95554687 10.41367187 -2.96484375 9.37109375 C-2.97644531 8.58863281 -2.98804688 7.80617188 -3 7 C-2.01 6.67 -1.02 6.34 0 6 C0 4.02 0 2.04 0 0 Z " fill="#F3965A" transform="translate(453,369)"/>
<path d="M0 0 C0.33 0.99 0.66 1.98 1 3 C1.66 3 2.32 3 3 3 C0.38256198 8.89571435 -4.71743343 13.40785473 -10 17 C-10.66 16.67 -11.32 16.34 -12 16 C-11.67 15.01 -11.34 14.02 -11 13 C-9.68 13 -8.36 13 -7 13 C-7 11.35 -7 9.7 -7 8 C-6.01 7.67 -5.02 7.34 -4 7 C-4 6.34 -4 5.68 -4 5 C-2.68 5.33 -1.36 5.66 0 6 C0 4.02 0 2.04 0 0 Z " fill="#F49457" transform="translate(432,416)"/>
<path d="M0 0 C1.69393215 1.64553409 3.35732623 3.30419392 5 5 C5.73283203 5.75603516 5.73283203 5.75603516 6.48046875 6.52734375 C9.9611528 10.35902115 9.9611528 10.35902115 10.125 13.0625 C8.51093535 15.842278 6.34943654 17.83128935 4 20 C4.309375 19.113125 4.61875 18.22625 4.9375 17.3125 C5.8290671 14.53290845 6.49377007 11.86863625 7 9 C6.01 9 5.02 9 4 9 C3.67 9.66 3.34 10.32 3 11 C2.51171875 9.01432292 2.0234375 7.02864583 1.53515625 5.04296875 C1.08989295 3.34316798 0.55566015 1.66698046 0 0 Z " fill="#DA7231" transform="translate(150,111)"/>
<path d="M0 0 C1.485 0.99 1.485 0.99 3 2 C3 2.66 3 3.32 3 4 C3.66 4 4.32 4 5 4 C5 4.66 5 5.32 5 6 C5.66 6 6.32 6 7 6 C7 6.66 7 7.32 7 8 C7.66 8 8.32 8 9 8 C10.38938077 9.96147874 11.7260411 11.96166576 13 14 C12.67 14.66 12.34 15.32 12 16 C10.02 15.01 8.04 14.02 6 13 C6 11.35 6 9.7 6 8 C5.34 8 4.68 8 4 8 C3.67 7.34 3.34 6.68 3 6 C2.01 5.67 1.02 5.34 0 5 C0 3.35 0 1.7 0 0 Z " fill="#F59B62" transform="translate(428,72)"/>
<path d="M0 0 C0.33 0 0.66 0 1 0 C1.01981934 0.61520508 1.03963867 1.23041016 1.06005859 1.86425781 C1.15549727 4.65992542 1.26509955 7.4548651 1.375 10.25 C1.4059375 11.21808594 1.436875 12.18617188 1.46875 13.18359375 C1.50742188 14.11816406 1.54609375 15.05273438 1.5859375 16.015625 C1.6173584 16.87446289 1.6487793 17.73330078 1.68115234 18.61816406 C1.86971906 21.03494087 1.86971906 21.03494087 3.08056641 23.10839844 C4 25 4 25 3.125 28.25 C2.75375 29.1575 2.3825 30.065 2 31 C1.34 30.67 0.68 30.34 0 30 C0 20.1 0 10.2 0 0 Z " fill="#B56637" transform="translate(231,266)"/>
<path d="M0 0 C0.33 0.66 0.66 1.32 1 2 C0.34 2 -0.32 2 -1 2 C-1.33 3.32 -1.66 4.64 -2 6 C-3.32 6.33 -4.64 6.66 -6 7 C-6.33 8.32 -6.66 9.64 -7 11 C-9.64 11 -12.28 11 -15 11 C-15 10.34 -15 9.68 -15 9 C-13.68 9 -12.36 9 -11 9 C-11 8.34 -11 7.68 -11 7 C-4.25 3 -4.25 3 -2 3 C-2 2.34 -2 1.68 -2 1 C-1.34 0.67 -0.68 0.34 0 0 Z " fill="#F29B62" transform="translate(410,403)"/>
<path d="M0 0 C1.32 0.66 2.64 1.32 4 2 C4 2.99 4 3.98 4 5 C3.5155542 5.46059814 3.0311084 5.92119629 2.53198242 6.39575195 C0.5089635 8.51419934 0.58042243 9.77473581 0.48828125 12.66796875 C0.45283203 13.56064453 0.41738281 14.45332031 0.38085938 15.37304688 C0.35830078 16.30181641 0.33574219 17.23058594 0.3125 18.1875 C0.27833984 19.12787109 0.24417969 20.06824219 0.20898438 21.03710938 C0.12651782 23.35795393 0.05736597 25.67842148 0 28 C-0.33 28 -0.66 28 -1 28 C-1.02912348 24.27084983 -1.04684037 20.5417291 -1.0625 16.8125 C-1.07087891 15.75740234 -1.07925781 14.70230469 -1.08789062 13.61523438 C-1.09111328 12.59365234 -1.09433594 11.57207031 -1.09765625 10.51953125 C-1.10289307 9.58214111 -1.10812988 8.64475098 -1.11352539 7.67895508 C-1.00082657 5.01950523 -0.59376649 2.59079427 0 0 Z " fill="#4B1C02" transform="translate(233,292)"/>
<path d="M0 0 C1.43838552 0.79005662 2.87567415 1.58211045 4.3125 2.375 C5.11300781 2.81585938 5.91351563 3.25671875 6.73828125 3.7109375 C8.53527943 4.73513335 10.27900708 5.85267138 12 7 C12 7.66 12 8.32 12 9 C13.32 9.66 14.64 10.32 16 11 C15.34 11.66 14.68 12.32 14 13 C14 12.34 14 11.68 14 11 C13.195625 10.87625 12.39125 10.7525 11.5625 10.625 C10.716875 10.41875 9.87125 10.2125 9 10 C8.67 9.34 8.34 8.68 8 8 C7.01 7.67 6.02 7.34 5 7 C5 6.34 5 5.68 5 5 C4.34 5 3.68 5 3 5 C3 4.34 3 3.68 3 3 C2.01 2.67 1.02 2.34 0 2 C0 1.34 0 0.68 0 0 Z " fill="#F09F6C" transform="translate(412,60)"/>
<path d="M0 0 C8.32110535 -0.67620721 15.18183678 1.25506495 23 4 C23 4.33 23 4.66 23 5 C17.4978184 5.23136637 12.86146222 4.4350346 7.5625 3 C6.83095703 2.80921875 6.09941406 2.6184375 5.34570312 2.421875 C3.56180334 1.95549597 1.78060155 1.47881722 0 1 C0 0.67 0 0.34 0 0 Z " fill="#ED9459" transform="translate(378,50)"/>
<path d="M0 0 C1.13730792 4.04670027 1.05122015 6.86520075 0 11 C-1.78845761 13.55352003 -3.80457892 15.79115126 -6 18 C-6 14.03579038 -4.49299692 10.91385068 -3 7.3125 C-2.71382812 6.61060547 -2.42765625 5.90871094 -2.1328125 5.18554688 C-1.42651923 3.45512837 -0.71386863 1.72730714 0 0 Z " fill="#340F02" transform="translate(228,392)"/>
<path d="M0 0 C0.66 0 1.32 0 2 0 C0.6302836 3.99500618 -1.25722422 6.80009492 -4 10 C-4.6875 7.1875 -4.6875 7.1875 -5 4 C-3.5625 2.125 -3.5625 2.125 -2 1 C-1.34 1.33 -0.68 1.66 0 2 C0 1.34 0 0.68 0 0 Z " fill="#F5955B" transform="translate(442,406)"/>
<path d="M0 0 C0.99 0.66 1.98 1.32 3 2 C1.61211198 3.30020011 0.21430742 4.5898193 -1.1875 5.875 C-1.96480469 6.59429687 -2.74210938 7.31359375 -3.54296875 8.0546875 C-5.97689776 9.9817092 -8.07536646 11.01300111 -11 12 C-11 11.34 -11 10.68 -11 10 C-10.34 10 -9.68 10 -9 10 C-9 9.34 -9 8.68 -9 8 C-8.01 8 -7.02 8 -6 8 C-6 7.34 -6 6.68 -6 6 C-5.01 6 -4.02 6 -3 6 C-3 5.34 -3 4.68 -3 4 C-2.34 4 -1.68 4 -1 4 C-0.67 2.68 -0.34 1.36 0 0 Z " fill="#300D01" transform="translate(187,405)"/>
<path d="M0 0 C2 3 2 3 2 6 C1.01 6.495 1.01 6.495 0 7 C-0.69093896 9.57951874 -0.69093896 9.57951874 -1.125 12.5625 C-1.29257812 13.57441406 -1.46015625 14.58632813 -1.6328125 15.62890625 C-1.75398438 16.41136719 -1.87515625 17.19382812 -2 18 C-2.99 18.33 -3.98 18.66 -5 19 C-4.54543566 16.95749089 -4.08617174 14.9160274 -3.625 12.875 C-3.24214844 11.16957031 -3.24214844 11.16957031 -2.8515625 9.4296875 C-2.05363523 6.21601712 -1.09209441 3.12433966 0 0 Z " fill="#EEA270" transform="translate(427,369)"/>
<path d="M0 0 C0.66 0 1.32 0 2 0 C1.50886719 1.48693359 1.50886719 1.48693359 1.0078125 3.00390625 C-0.13913622 7.01822678 -0.19896279 10.75860244 -0.125 14.9375 C-0.11597656 15.62134766 -0.10695312 16.30519531 -0.09765625 17.00976562 C-0.07438958 18.67333287 -0.03853167 20.33671631 0 22 C-0.66 22.33 -1.32 22.66 -2 23 C-2 16.07 -2 9.14 -2 2 C-1.34 2 -0.68 2 0 2 C0 1.34 0 0.68 0 0 Z " fill="#3E200E" transform="translate(234,265)"/>
<path d="M0 0 C0.33 0 0.66 0 1 0 C1 7.59 1 15.18 1 23 C0.01 23 -0.98 23 -2 23 C-2 22.34 -2 21.68 -2 21 C-2.66 21 -3.32 21 -4 21 C-3.67 20.34 -3.34 19.68 -3 19 C-2.01 19.33 -1.02 19.66 0 20 C0 13.4 0 6.8 0 0 Z " fill="#804520" transform="translate(158,427)"/>
<path d="M0 0 C0.33 0 0.66 0 1 0 C1 1.98 1 3.96 1 6 C0.34 6 -0.32 6 -1 6 C-1.33 6.99 -1.66 7.98 -2 9 C-3.87617698 10.84499398 -5.92737609 12.3683599 -8 14 C-8.66 13.67 -9.32 13.34 -10 13 C-9.52949219 12.48050781 -9.05898437 11.96101563 -8.57421875 11.42578125 C-5.30878337 7.76822319 -2.41434979 4.2921774 0 0 Z " fill="#D77030" transform="translate(198,395)"/>
<path d="M0 0 C2.35716404 2.15454249 3.78966144 4.19719874 5.1875 7.0625 C5.53167969 7.75472656 5.87585938 8.44695312 6.23046875 9.16015625 C7 11 7 11 7 13 C6.01 12.67 5.02 12.34 4 12 C3.67 11.01 3.34 10.02 3 9 C2.2265625 8.3503125 2.2265625 8.3503125 1.4375 7.6875 C-0.66941181 5.21416874 -0.20908421 3.1362632 0 0 Z " fill="#F19C63" transform="translate(441,88)"/>
<path d="M0 0 C0.66 0.99 1.32 1.98 2 3 C0.02 5.31 -1.96 7.62 -4 10 C-5 8 -5 8 -5 4 C-3.43987595 2.0853023 -2.21081721 1.1054086 0 0 Z " fill="#EE7427" transform="translate(136,149)"/>
<path d="M0 0 C0.66 0.33 1.32 0.66 2 1 C1.01 1.33 0.02 1.66 -1 2 C-1.268125 2.556875 -1.53625 3.11375 -1.8125 3.6875 C-3.532843 7.03764163 -6.08575288 9.62425507 -9 12 C-9.66 12 -10.32 12 -11 12 C-11 11.34 -11 10.68 -11 10 C-10.34 10 -9.68 10 -9 10 C-8.74476563 9.40703125 -8.48953125 8.8140625 -8.2265625 8.203125 C-6.88183502 5.78775462 -5.50785633 4.48788294 -3.375 2.75 C-2.74335938 2.22921875 -2.11171875 1.7084375 -1.4609375 1.171875 C-0.73777344 0.59179688 -0.73777344 0.59179688 0 0 Z " fill="#686868" transform="translate(309,105)"/>
<path d="M0 0 C-4.63820439 3.39380809 -9.41936981 6.55086618 -15.4375 5.625 C-15.953125 5.41875 -16.46875 5.2125 -17 5 C-15.02 4.67 -13.04 4.34 -11 4 C-11 3.34 -11 2.68 -11 2 C-9.73392393 1.46770674 -8.46189588 0.94955456 -7.1875 0.4375 C-6.47980469 0.14746094 -5.77210938 -0.14257812 -5.04296875 -0.44140625 C-3 -1 -3 -1 0 0 Z " fill="#EC985D" transform="translate(394,415)"/>
<path d="M0 0 C0.33 0.99 0.66 1.98 1 3 C-0.4375 5.1875 -0.4375 5.1875 -2 7 C-0.68 7.66 0.64 8.32 2 9 C-0.64 9 -3.28 9 -6 9 C-4.47291037 5.56404834 -2.40072955 2.88087546 0 0 Z " fill="#320B01" transform="translate(218,414)"/>
<path d="M0 0 C1 2 1 2 0.328125 4.2421875 C-0.02765625 5.11101562 -0.3834375 5.97984375 -0.75 6.875 C-1.26820313 8.17050781 -1.26820313 8.17050781 -1.796875 9.4921875 C-2.96872009 11.93479968 -4.3000799 13.89952401 -6 16 C-5.67 13.69 -5.34 11.38 -5 9 C-4.34 9 -3.68 9 -3 9 C-3 7.35 -3 5.7 -3 4 C-2.34 4 -1.68 4 -1 4 C-0.67 2.68 -0.34 1.36 0 0 Z " fill="#F1A877" transform="translate(450,390)"/>
<path d="M0 0 C0.33 0.66 0.66 1.32 1 2 C-2.20945602 4.8503026 -4.49988548 5.43451699 -8.75 5.6875 C-9.73484375 5.75324219 -10.7196875 5.81898438 -11.734375 5.88671875 C-12.48203125 5.92410156 -13.2296875 5.96148437 -14 6 C-10.98029212 4.43370292 -7.91349586 3.12374836 -4.75 1.875 C-3.85796875 1.52179688 -2.9659375 1.16859375 -2.046875 0.8046875 C-1.37140625 0.53914063 -0.6959375 0.27359375 0 0 Z " fill="#C96729" transform="translate(174,418)"/>
<path d="M0 0 C1 4 1 4 0.0625 6.25 C-0.4634375 7.11625 -0.4634375 7.11625 -1 8 C-2.65 8 -4.3 8 -6 8 C-4.02 5.36 -2.04 2.72 0 0 Z " fill="#F09455" transform="translate(417,395)"/>
<path d="M0 0 C1.66666667 1.66666667 3.33333333 3.33333333 5 5 C5.8971875 5.8353125 5.8971875 5.8353125 6.8125 6.6875 C8 8 8 8 8 10 C7.01 10.33 6.02 10.66 5 11 C4.731875 10.2575 4.46375 9.515 4.1875 8.75 C3.05593565 6.12953519 1.71182842 4.2565011 0 2 C0 1.34 0 0.68 0 0 Z " fill="#DE6E2E" transform="translate(142,101)"/>
<path d="M0 0 C0.66 0.33 1.32 0.66 2 1 C-0.64 3.64 -3.28 6.28 -6 9 C-6.66 8.67 -7.32 8.34 -8 8 C-7.34 7.01 -6.68 6.02 -6 5 C-5.34 5 -4.68 5 -4 5 C-3.67 4.01 -3.34 3.02 -3 2 C-2.01 1.34 -1.02 0.68 0 0 Z " fill="#636363" transform="translate(294,97)"/>
<path d="M0 0 C1.32 0 2.64 0 4 0 C4.33 0.99 4.66 1.98 5 3 C3.625 5.6875 3.625 5.6875 2 8 C1.67 8 1.34 8 1 8 C0.67 5.36 0.34 2.72 0 0 Z " fill="#E5722D" transform="translate(220,400)"/>
<path d="M0 0 C1.98 0.99 1.98 0.99 4 2 C4 2.99 4 3.98 4 5 C2 6.6875 2 6.6875 0 8 C0 5.36 0 2.72 0 0 Z " fill="#2B2523" transform="translate(233,292)"/>
<path d="M0 0 C0.66 0.33 1.32 0.66 2 1 C-0.31 3.31 -2.62 5.62 -5 8 C-5.66 7.67 -6.32 7.34 -7 7 C-4.78071806 4.09197539 -3.07030857 2.04687238 0 0 Z " fill="#747474" transform="translate(113,332)"/>
<path d="M0 0 C1.32 0.33 2.64 0.66 4 1 C2.35830472 3.02054804 0.69088222 5.02043058 -1 7 C-1.33 7 -1.66 7 -2 7 C-2 5.35 -2 3.7 -2 2 C-1.34 2 -0.68 2 0 2 C0 1.34 0 0.68 0 0 Z " fill="#DB6F2C" transform="translate(145,138)"/>
<path d="M0 0 C3.92300495 2.35380297 4.83857315 4.64464931 6 9 C5.34 9 4.68 9 4 9 C3.67 9.66 3.34 10.32 3 11 C2.51171875 9.01432292 2.0234375 7.02864583 1.53515625 5.04296875 C1.08989295 3.34316798 0.55566015 1.66698046 0 0 Z " fill="#E8732C" transform="translate(150,111)"/>
<path d="M0 0 C-0.33 0.99 -0.66 1.98 -1 3 C-3.64 3 -6.28 3 -9 3 C-9 2.34 -9 1.68 -9 1 C-5.92677456 0.08941469 -3.19902639 -0.08886184 0 0 Z " fill="#F28C4D" transform="translate(404,411)"/>
<path d="M0 0 C3.73487777 0.4979837 5.81237635 0.87491756 9 3 C2.25 3.125 2.25 3.125 0 2 C0 1.34 0 0.68 0 0 Z " fill="#F4AB75" transform="translate(392,52)"/>
<path d="" fill="#FFFFFF" transform="translate(0,0)"/>
<path d="" fill="#FFFFFF" transform="translate(0,0)"/>
<path d="" fill="#FFFFFF" transform="translate(0,0)"/>
<path d="" fill="#FFFFFF" transform="translate(0,0)"/>
<path d="" fill="#FFFFFF" transform="translate(0,0)"/>
<path d="" fill="#FFFFFF" transform="translate(0,0)"/>
<path d="" fill="#FFFFFF" transform="translate(0,0)"/>
<path d="" fill="#FFFFFF" transform="translate(0,0)"/>
<path d="" fill="#FFFFFF" transform="translate(0,0)"/>
<path d="" fill="#FFFFFF" transform="translate(0,0)"/>
<path d="" fill="#FFFFFF" transform="translate(0,0)"/>
<path d="" fill="#FFFFFF" transform="translate(0,0)"/>
<path d="" fill="#FFFFFF" transform="translate(0,0)"/>
<path d="" fill="#FFFFFF" transform="translate(0,0)"/>
<path d="" fill="#FFFFFF" transform="translate(0,0)"/>
<path d="" fill="#FFFFFF" transform="translate(0,0)"/>
<path d="" fill="#FFFFFF" transform="translate(0,0)"/>
<path d="" fill="#FFFFFF" transform="translate(0,0)"/>
<path d="" fill="#FFFFFF" transform="translate(0,0)"/>
<path d="" fill="#FFFFFF" transform="translate(0,0)"/>
<path d="" fill="#FFFFFF" transform="translate(0,0)"/>
<path d="" fill="#FFFFFF" transform="translate(0,0)"/>
<path d="" fill="#FFFFFF" transform="translate(0,0)"/>
<path d="" fill="#FFFFFF" transform="translate(0,0)"/>
<path d="" fill="#FFFFFF" transform="translate(0,0)"/>
<path d="" fill="#FFFFFF" transform="translate(0,0)"/>
<path d="" fill="#FFFFFF" transform="translate(0,0)"/>
<path d="" fill="#FFFFFF" transform="translate(0,0)"/>
<path d="" fill="#FFFFFF" transform="translate(0,0)"/>
<path d="" fill="#FFFFFF" transform="translate(0,0)"/>
<path d="" fill="#FFFFFF" transform="translate(0,0)"/>
<path d="" fill="#FFFFFF" transform="translate(0,0)"/>
<path d="" fill="#FFFFFF" transform="translate(0,0)"/>
<path d="" fill="#FFFFFF" transform="translate(0,0)"/>
<path d="" fill="#FFFFFF" transform="translate(0,0)"/>
<path d="" fill="#FFFFFF" transform="translate(0,0)"/>
<path d="" fill="#FFFFFF" transform="translate(0,0)"/>
<path d="" fill="#FFFFFF" transform="translate(0,0)"/>
<path d="" fill="#FFFFFF" transform="translate(0,0)"/>
<path d="" fill="#FFFFFF" transform="translate(0,0)"/>
<path d="" fill="#FFFFFF" transform="translate(0,0)"/>
<path d="" fill="#FFFFFF" transform="translate(0,0)"/>
<path d="" fill="#FFFFFF" transform="translate(0,0)"/>
<path d="" fill="#FFFFFF" transform="translate(0,0)"/>
<path d="" fill="#FFFFFF" transform="translate(0,0)"/>
<path d="" fill="#FFFFFF" transform="translate(0,0)"/>
<path d="" fill="#FFFFFF" transform="translate(0,0)"/>
<path d="" fill="#FFFFFF" transform="translate(0,0)"/>
<path d="" fill="#FFFFFF" transform="translate(0,0)"/>
<path d="" fill="#FFFFFF" transform="translate(0,0)"/>
<path d="" fill="#FFFFFF" transform="translate(0,0)"/>
<path d="" fill="#FFFFFF" transform="translate(0,0)"/>
<path d="" fill="#FFFFFF" transform="translate(0,0)"/>
<path d="" fill="#FFFFFF" transform="translate(0,0)"/>
<path d="" fill="#FFFFFF" transform="translate(0,0)"/>
<path d="" fill="#FFFFFF" transform="translate(0,0)"/>
<path d="" fill="#FFFFFF" transform="translate(0,0)"/>
<path d="" fill="#FFFFFF" transform="translate(0,0)"/>
<path d="" fill="#FFFFFF" transform="translate(0,0)"/>
</svg>
