<?xml version="1.0" encoding="UTF-8"?>
<svg version="1.1" xmlns="http://www.w3.org/2000/svg" width="2000" height="2000">
<path d="M0 0 C660 0 1320 0 2000 0 C2000 660 2000 1320 2000 2000 C1340 2000 680 2000 0 2000 C0 1340 0 680 0 0 Z " fill="#FEFEFE" transform="translate(0,0)"/>
<path d="M0 0 C17.36949107 -0.00530512 34.73897272 -0.01599961 52.10845905 -0.02970473 C71.53307832 -0.04498762 90.95768497 -0.05325533 110.38231056 -0.05134676 C120.06683956 -0.05053962 129.75134343 -0.05253696 139.43586688 -0.06358497 C147.33545139 -0.07259381 155.23500031 -0.07494603 163.13458777 -0.06816272 C167.07219804 -0.06496683 171.00973879 -0.06476805 174.94734209 -0.07357471 C194.7416971 -0.11512058 214.11739849 0.40748077 233.59536701 4.29549058 C235.84649652 4.7440107 238.09691937 5.18948303 240.35366779 5.60896714 C266.04500942 10.43750019 291.61383558 19.6488778 315.03677326 31.17830308 C316.39828596 31.82771944 317.76025878 32.4761721 319.12271076 33.12361558 C342.03286516 44.14811385 363.44594519 57.9860603 383.03677326 74.17830308 C383.59638751 74.64027085 384.15600177 75.10223862 384.73257404 75.57820542 C402.78546352 90.57686068 419.4735745 106.74716026 434.03677326 125.17830308 C434.79087482 126.11416245 435.54497638 127.05002183 436.32192951 128.01424058 C466.44259158 166.11810252 486.87494333 210.30821353 499.03677326 257.17830308 C499.23851154 257.94980698 499.44024982 258.72131089 499.64810138 259.5161937 C502.42633648 270.46456963 503.84751804 281.60935606 505.22427326 292.80330308 C505.30922046 293.48851029 505.39416767 294.17371751 505.48168903 294.87968858 C507.44254144 310.90680519 508.18859519 326.85464865 508.16820102 342.98879083 C508.1698558 344.6159692 508.17194439 346.24314718 508.17442112 347.87032451 C508.17993142 352.30920691 508.17932584 356.74806981 508.17764353 361.18695452 C508.17690719 366.02878577 508.18194759 370.87061174 508.18621855 375.71244068 C508.19376944 385.30107045 508.19599013 394.88969464 508.19654761 404.47832707 C508.19746413 415.96995651 508.2041402 427.46158085 508.21089443 438.95320809 C508.22692691 466.72235407 508.23285453 494.49149948 508.23764318 522.26064925 C508.23998183 535.40592838 508.24358477 548.55120707 508.24733856 561.69648585 C508.25997051 606.01918181 508.27078413 650.34187764 508.27417902 694.66457536 C508.27434125 696.7811501 508.27450681 698.89772483 508.2746734 701.01429957 C508.27500718 705.25881094 508.27533767 709.50332231 508.27566796 713.74783368 C508.27605484 718.71665862 508.27644445 723.68548355 508.27683902 728.65430849 C508.27695144 730.07640229 508.27706286 731.49849608 508.27717328 732.92058988 C508.280721 778.57169561 508.29579393 824.22278559 508.31911102 869.87388532 C508.33586788 902.69439165 508.35133398 935.514895 508.35584598 968.33540566 C508.35598621 969.34926239 508.35598621 969.34926239 508.35612927 970.38360107 C508.35805823 984.55950925 508.35926523 998.73541741 508.35961024 1012.91132571 C508.35977437 1019.55105746 508.36003377 1026.1907892 508.36034351 1032.83052094 C508.36039928 1034.13716698 508.36045505 1035.44381302 508.3605125 1036.79005439 C508.36166094 1057.77584767 508.37266521 1078.76162458 508.38723056 1099.74741234 C508.40162898 1120.8584296 508.40481369 1141.96942598 508.39679059 1163.08044681 C508.39235016 1175.60490824 508.3961311 1188.12930204 508.41202909 1200.65375452 C508.42183708 1209.04117261 508.42054581 1217.42854374 508.41059286 1225.81596148 C508.40524249 1230.58078427 508.40435385 1235.34547798 508.41710158 1240.11028966 C508.48803315 1268.40100128 507.27401959 1296.29265132 502.03677326 1324.17830308 C501.90190509 1324.91274644 501.76703693 1325.6471898 501.62808185 1326.40388902 C488.22978314 1398.13964749 449.9091729 1467.68676338 394.03677326 1515.17830308 C393.10349201 1515.98912339 392.17021076 1516.7999437 391.20864826 1517.63533433 C352.68748988 1550.92455068 307.74726735 1573.78338107 259.03677326 1588.17830308 C258.33520099 1588.38680894 257.63362873 1588.5953148 256.91079669 1588.81013902 C248.85401339 1591.17181598 240.77049289 1592.88422667 232.4925838 1594.22810777 C228.64874969 1594.81357416 228.64874969 1594.81357416 225.03677326 1596.17830308 C200.58376946 1600.19839274 175.59487415 1599.58349599 150.91160088 1599.48248489 C145.44515322 1599.46341743 139.97869766 1599.46194446 134.51222187 1599.45840867 C124.21424391 1599.44917479 113.9163643 1599.4246815 103.61842918 1599.3943602 C91.8718776 1599.36054247 80.12532071 1599.34426219 68.37873238 1599.32927389 C44.264692 1599.29812161 20.1507382 1599.24553436 -3.96322674 1599.17830308 C-3.96322674 1599.83830308 -3.96322674 1600.49830308 -3.96322674 1601.17830308 C-43.35899546 1601.36081375 -82.75482996 1601.52614349 -122.15072674 1601.67830308 C-122.91345397 1601.68124953 -123.67618119 1601.68419599 -124.46202136 1601.68723173 C-217.90724502 1602.04761026 -311.35222707 1602.24670324 -476.69656122 1602.30113371 C-490.79211044 1602.30229673 -504.88765794 1602.30551079 -518.9832065 1602.30987465 C-538.69135663 1602.31593078 -558.39950172 1602.31816802 -578.10765249 1602.31386442 C-580.05995817 1602.31344613 -582.01226384 1602.31303209 -583.96456952 1602.31262238 C-584.92247334 1602.31242028 -585.88037716 1602.31221818 -586.86730836 1602.31200995 C-593.56018119 1602.31083842 -600.25305083 1602.3121213 -606.94592328 1602.31446107 C-614.96738843 1602.31722588 -622.98884385 1602.3165805 -631.0103079 1602.3112675 C-635.069598 1602.30866624 -639.12887172 1602.30767431 -643.18816168 1602.31097539 C-646.8803023 1602.31393245 -650.57241077 1602.31235475 -654.26454843 1602.30699122 C-656.23840277 1602.30532999 -658.21225933 1602.30862178 -660.1861114 1602.31204601 C-661.34017088 1602.30943842 -662.49423036 1602.30683083 -663.68326134 1602.30414422 C-664.68632055 1602.30398187 -665.68937977 1602.30381951 -666.72283471 1602.30365224 C-668.96322674 1602.17830308 -668.96322674 1602.17830308 -669.96322674 1601.17830308 C-670.76599041 1601.22325913 -671.56875409 1601.26821519 -672.39584393 1601.31453355 C-675.91479391 1601.4342595 -678.59114733 1601.22672082 -681.96322674 1600.17830308 C-685.65494563 1596.42293386 -687.84526324 1591.94631892 -690.21322674 1587.30330308 C-690.92901253 1585.98215695 -691.64955661 1584.66357881 -692.3746037 1583.34749253 C-693.86486509 1580.63475928 -695.3348894 1577.9124775 -696.79184002 1575.18172105 C-700.04682358 1569.12526502 -703.60812646 1563.25735289 -707.15072674 1557.36580308 C-708.48065068 1555.12859024 -709.80879511 1552.89031854 -711.13510174 1550.65095933 C-711.77641034 1549.56830796 -712.41771893 1548.48565659 -713.07846112 1547.37019761 C-716.61254738 1541.38514013 -720.11059818 1535.37915792 -723.60678143 1529.37190659 C-726.75780031 1523.95803673 -729.91604747 1518.54855334 -733.08822674 1513.14705308 C-733.61672474 1512.2471087 -733.61672474 1512.2471087 -734.15589947 1511.32898362 C-734.68834019 1510.42234719 -734.68834019 1510.42234719 -735.23153729 1509.49739487 C-743.25720092 1495.83117099 -751.21244603 1482.12603401 -759.11605877 1468.3887523 C-767.60268785 1453.63866344 -776.10990594 1438.9013678 -784.69833416 1424.2102855 C-788.94175522 1416.9459627 -793.14448264 1409.65889042 -797.33822674 1402.36580308 C-803.13339869 1392.29352918 -809.03141699 1382.28607371 -814.97348065 1372.29988511 C-819.61747742 1364.48299938 -824.18494638 1356.6252153 -828.71322674 1348.74080308 C-833.44055207 1340.51486733 -838.22460593 1332.3307672 -843.12875409 1324.2090648 C-846.25464889 1319.03080442 -849.35692918 1313.83929071 -852.43978924 1308.63533433 C-853.03489049 1307.63078706 -853.03489049 1307.63078706 -853.64201397 1306.6059459 C-854.4604672 1305.22419759 -855.27889235 1303.84243266 -856.09729046 1302.46065171 C-863.31373948 1290.27842398 -870.59166359 1278.13848327 -877.98275799 1266.06111558 C-878.97647842 1264.43365234 -879.9699683 1262.80604831 -880.96322674 1261.17830308 C-881.4926286 1260.3143895 -882.02203045 1259.45047593 -882.56747479 1258.56038316 C-894.97934632 1238.14060562 -900.18644336 1213.44678608 -894.70932049 1189.72517808 C-889.67133377 1172.52744329 -882.78588739 1158.68686397 -869.96322674 1146.17830308 C-869.23361737 1145.43967027 -868.50400799 1144.70103745 -867.75228924 1143.94002183 C-862.25641054 1138.67909705 -856.0058108 1135.08181846 -849.36117596 1131.48347886 C-845.42874366 1129.34310184 -841.52183816 1127.15691829 -837.6101994 1124.97884019 C-834.68823297 1123.35247821 -831.76475281 1121.72891465 -828.84030194 1120.10702927 C-814.6965994 1112.26271314 -800.58072837 1104.36836427 -786.51205487 1096.39021714 C-775.71775537 1090.26993218 -764.87345375 1084.24482212 -754.00326581 1078.26082261 C-752.76595331 1077.57968446 -751.52864861 1076.89853212 -750.29135174 1076.21736558 C-749.67890606 1075.88020524 -749.06646039 1075.5430449 -748.43545575 1075.19566758 C-742.10182312 1071.70706846 -735.78197957 1068.19377006 -729.46322674 1064.67830308 C-720.1402728 1059.49266588 -710.8061812 1054.32777311 -701.46322674 1049.17830308 C-687.61212069 1041.54354978 -673.78479878 1033.86640071 -659.96322674 1026.17830308 C-645.53277843 1018.15152471 -631.09396376 1010.14058096 -616.63278241 1002.16933091 C-603.39219902 994.87026156 -590.17592537 987.52772156 -576.96322674 980.17830308 C-563.18235846 972.51284647 -549.39657271 964.85665305 -535.58822674 957.24080308 C-534.69795788 956.7497609 -534.69795788 956.7497609 -533.78970379 956.24879868 C-527.49483241 952.77707137 -521.19868889 949.30765933 -514.90130658 945.84048875 C-512.23113949 944.37016894 -509.56136012 942.89914601 -506.8916325 941.42802842 C-505.00784709 940.39038134 -503.1234848 939.35378743 -501.23910565 938.31721909 C-500.09619061 937.6874315 -498.95327557 937.0576439 -497.77572674 936.40877183 C-496.77154706 935.85600571 -495.76736737 935.3032396 -494.73275799 934.733723 C-492.87301091 933.68925468 -491.0365283 932.60233884 -489.22494549 931.47639878 C-486.96322674 930.17830308 -486.96322674 930.17830308 -484.96322674 930.17830308 C-484.96322674 812.36830308 -484.96322674 694.55830308 -484.96322674 573.17830308 C-618.28322674 573.17830308 -751.60322674 573.17830308 -888.96322674 573.17830308 C-888.96322674 384.41830308 -888.96322674 195.65830308 -888.96322674 1.17830308 C-731.62276138 0.90984489 -731.62276138 0.90984489 -682.74183949 0.83029217 C-679.30366229 0.82469592 -675.86548509 0.81909735 -672.4273079 0.8134968 C-579.50386457 0.66218525 -486.58040798 0.51945653 0 0 Z " fill="#FE741F" transform="translate(1308.9632267430425,198.82169692218304)"/>
<path d="M0 0 C3.76077717 -0.00193929 7.52155433 -0.00391323 11.28233147 -0.0059185 C12.21409226 -0.00640532 13.14585305 -0.00689213 14.10584901 -0.0073937 C29.57503784 -0.01589558 45.04415462 -0.04171238 60.51331124 -0.07349918 C76.780697 -0.10663691 93.04804505 -0.12457842 109.31546468 -0.1277768 C118.30061212 -0.12991146 127.28564658 -0.13822738 136.27075958 -0.16423798 C143.80154619 -0.18602007 151.3321906 -0.19394973 158.8630052 -0.18427119 C162.67284429 -0.17977932 166.48238946 -0.18131769 170.29218674 -0.20103264 C193.33034359 -0.31363317 215.65548924 1.25886982 237.67027092 8.53924751 C238.88553459 8.92983345 240.10079826 9.32041939 241.35288811 9.72284126 C251.14386664 12.94050929 260.52084655 16.6788629 269.73277092 21.28924751 C270.7899633 21.80672554 270.7899633 21.80672554 271.86851311 22.33465767 C282.8246354 27.72885836 292.90333861 34.05277788 302.73277092 41.28924751 C303.63140862 41.95029488 303.63140862 41.95029488 304.54820061 42.62469673 C320.63850018 54.59257813 335.26778198 68.60020048 347.73277092 84.28924751 C348.50491936 85.23284126 349.27706779 86.17643501 350.07261467 87.14862251 C374.94132707 118.2647424 392.31206652 157.17990038 397.40855217 196.80096626 C397.6890821 199.259406 397.6890821 199.259406 398.24089241 201.51877785 C398.81511317 204.75303423 398.89053234 207.81943516 398.92704582 211.10504341 C398.93566147 211.77801287 398.94427712 212.45098233 398.95315385 213.14434481 C398.98048964 215.3924891 399.00078497 217.64063683 399.02085686 219.88885689 C399.03858955 221.50395175 399.05659157 223.11904368 399.07484245 224.73413277 C399.23379041 239.47471997 399.31820905 254.21622154 399.3848362 268.95748329 C399.43503616 279.84256398 399.52093138 290.72613458 399.6534574 301.61053038 C399.74363856 309.27698166 399.7913133 316.94302014 399.8084147 324.6099782 C399.81984366 329.18251252 399.84987647 333.7531124 399.92636681 338.32505989 C399.9976752 342.6333868 400.01592619 346.93883873 399.99524879 351.24767494 C399.99666628 352.81943599 400.01659638 354.39131957 400.0574894 355.96254921 C400.29700637 365.6726778 398.70916184 371.8793225 391.97144485 379.07533216 C390.57393201 380.49527192 389.15367019 381.89271026 387.73277092 383.28924751 C386.24253584 384.94602487 384.76107439 386.61081611 383.29527092 388.28924751 C381.77619613 389.95751715 380.25522607 391.6240622 378.73277092 393.28924751 C377.77421809 394.35285182 376.81589756 395.41666551 375.85777092 396.48065376 C370.55415226 402.33783442 365.17462741 407.91809614 359.21323967 413.12127876 C356.58580956 415.41769405 354.03807982 417.78799675 351.48277092 420.16424751 C345.75058106 425.37386747 339.74727023 430.15572142 333.59947014 434.85956001 C332.35330433 435.81398677 331.11013628 436.77234019 329.86997795 437.73456001 C312.48330864 451.22196333 293.9560713 462.62570889 274.73277092 473.28924751 C273.64850822 473.89107857 272.56424553 474.49290962 271.44712639 475.11297798 C264.76853503 478.8147398 258.08110209 482.50020417 251.38905144 486.17756844 C247.03737806 488.5695653 242.6904196 490.96994755 238.34605217 493.37518501 C225.64402176 500.40482242 212.90821164 507.36231169 200.10996819 514.21600533 C193.17927109 517.93933012 186.31513391 521.76380962 179.48277092 525.66424751 C170.54548352 530.7645308 161.50928776 535.6544178 152.42027092 540.47674751 C142.3160964 545.83835078 132.26358021 551.27420752 122.28404045 556.86493111 C116.73561898 559.96249004 111.17102174 563.03092923 105.60777092 566.10174751 C104.98399559 566.44621925 104.36022026 566.79069099 103.71754265 567.14560127 C95.28749184 571.7995883 86.8346096 576.40837041 78.35777092 580.97674751 C70.67920852 585.11530877 63.06121775 589.34522785 55.48277092 593.66424751 C46.38203816 598.84995103 37.17957349 603.82851001 27.93260002 608.74670601 C19.9686953 612.98515703 12.06730141 617.31562105 4.23277092 621.78924751 C-4.29797509 626.65954987 -12.91155239 631.35727906 -21.57972908 635.97674751 C-30.57449426 640.77114053 -39.53517887 645.61469828 -48.43129158 650.59002876 C-54.63264453 654.05815337 -60.85734499 657.48406073 -67.07972908 660.91424751 C-69.59016604 662.29832529 -72.10057599 663.68245206 -74.61097908 665.06659126 C-75.24252907 665.41476906 -75.87407906 665.76294685 -76.52476692 666.12167549 C-80.93018582 668.55079896 -85.33352097 670.98366917 -89.73597908 673.41815376 C-102.11369197 680.26089586 -114.51095133 687.06353175 -126.95521736 693.78485298 C-134.08958525 697.64155967 -141.18752508 701.55907484 -148.27113533 705.50799751 C-154.63606251 709.05509771 -161.01332625 712.57986364 -167.39222908 716.10174751 C-168.0137989 716.44495033 -168.63536873 716.78815315 -169.275774 717.14175606 C-177.81472802 721.85452948 -186.37337172 726.52899593 -194.95472908 731.16424751 C-203.91771317 736.00576481 -212.84129832 740.91144221 -221.73597908 745.87713814 C-226.84734725 748.72861899 -231.96371073 751.57112099 -237.07972908 754.41424751 C-238.22143562 755.04886909 -239.36314217 755.68349068 -240.53944588 756.33734322 C-248.37077037 760.68857904 -256.21306353 765.01962677 -264.06010628 769.34243965 C-273.68887081 774.64688088 -283.30440676 779.97349159 -292.89222908 785.35174751 C-326.68368338 804.30536534 -326.68368338 804.30536534 -341.9373951 812.50702095 C-346.72409832 815.08269606 -351.49886916 817.67979071 -356.26722908 820.28924751 C-357.05710213 820.71963326 -357.84697517 821.150019 -358.66078377 821.59344673 C-371.09499613 828.4204821 -371.09499613 828.4204821 -378.26722908 840.28924751 C-378.43971887 842.30539863 -378.53391626 844.32874992 -378.57972908 846.35174751 C-378.61711189 847.41522408 -378.65449471 848.47870064 -378.69301033 849.57440376 C-377.6122834 859.00349832 -372.35538698 866.87075612 -367.45472908 874.78924751 C-366.09995474 877.01204299 -364.74714783 879.23603859 -363.39613533 881.46112251 C-362.87953346 882.31024208 -362.87953346 882.31024208 -362.35249519 883.17651558 C-358.77098836 889.07659119 -355.32495365 895.05180926 -351.89222908 901.03924751 C-346.60171575 910.25236105 -341.2706859 919.43981394 -335.89222908 928.60174751 C-335.53824043 929.20482735 -335.18425179 929.80790718 -334.81953621 930.42926216 C-333.02171474 933.49179393 -331.22324352 936.55394345 -329.42445564 939.61590767 C-326.22141593 945.06896426 -323.02422665 950.52545 -319.82661629 955.98169136 C-318.76839442 957.78725917 -317.70998507 959.59271694 -316.65150642 961.39813423 C-313.42570886 966.90031457 -310.20042774 972.40279559 -306.97706795 977.9064045 C-300.25835582 989.37796265 -293.53794477 1000.84826714 -286.76722908 1012.28924751 C-279.62677191 1024.35500747 -272.54226649 1036.45343034 -265.45668221 1048.55145454 C-263.30582833 1052.22365866 -261.15390458 1055.89523487 -259.00160408 1059.56659126 C-258.6519207 1060.16307976 -258.30223732 1060.75956825 -257.94195747 1061.37413216 C-256.53030656 1063.78205824 -255.1186055 1066.1899549 -253.70683479 1068.59781075 C-250.154274 1074.65690792 -246.60210717 1080.71623109 -243.05410957 1086.77800179 C-235.76096975 1099.23821859 -228.44984006 1111.68686422 -221.07972908 1124.10174751 C-214.96612426 1134.40069435 -208.9102046 1144.73170001 -202.88441658 1155.08221626 C-198.9212436 1161.88824995 -194.93909559 1168.68311054 -190.95472908 1175.47674751 C-190.59887733 1176.08355354 -190.24302559 1176.69035957 -189.87639046 1177.31555367 C-188.0646007 1180.40501791 -186.2526369 1183.49438003 -184.44056892 1186.58368111 C-181.23488639 1192.04909235 -178.03085049 1197.51546882 -174.82670784 1202.98178291 C-173.0569507 1206.00097829 -171.2870843 1209.02010963 -169.51722908 1212.03924751 C-168.80889522 1213.24758054 -168.10056189 1214.45591387 -167.39222908 1215.66424751 C-167.04160408 1216.26237251 -166.69097908 1216.86049751 -166.32972908 1217.47674751 C-129.14222912 1280.91424745 -129.14222912 1280.91424745 -128.07977486 1282.72667122 C-127.37129102 1283.93526009 -126.6628051 1285.14384774 -125.95431709 1286.35243416 C-124.18576929 1289.36934774 -122.41725754 1292.38628245 -120.64882088 1295.40326118 C-117.43409956 1300.88754066 -114.21909283 1306.37165192 -111.00277901 1311.85499763 C-102.89050502 1325.68526696 -94.78714244 1339.52059042 -86.71644783 1353.37518501 C-84.24676956 1357.61361925 -81.76870774 1361.84704908 -79.28676033 1366.07831001 C-78.63538094 1367.19036812 -77.98400154 1368.30242622 -77.31288338 1369.44818306 C-76.05435628 1371.59649377 -74.7941627 1373.74382929 -73.53212166 1375.89007759 C-72.69330452 1377.32323311 -72.69330452 1377.32323311 -71.83754158 1378.78534126 C-71.34012459 1379.63281929 -70.8427076 1380.48029732 -70.33021736 1381.3534565 C-69.26722908 1383.28924751 -69.26722908 1383.28924751 -69.26722908 1384.28924751 C-131.83443212 1384.98585289 -194.39555602 1385.39005469 -256.96644783 1385.38690376 C-257.73222234 1385.38687589 -258.49799684 1385.38684802 -259.28697664 1385.3868193 C-278.7588776 1385.38589171 -298.23076916 1385.37540349 -317.70266449 1385.36127412 C-328.97784766 1385.35318648 -340.25302996 1385.34782962 -351.52821541 1385.34417915 C-352.33734796 1385.34391643 -353.14648052 1385.34365371 -353.98013224 1385.34338302 C-358.0445333 1385.34207677 -362.10893436 1385.34081335 -366.17333543 1385.33957112 C-399.20463808 1385.3294214 -432.23593266 1385.31201427 -465.26722908 1385.28924751 C-463.42051742 1381.3938401 -460.95492254 1378.19798125 -458.26722908 1374.85174751 C-457.26689548 1373.58899088 -456.26690251 1372.32596434 -455.26722908 1371.06268501 C-453.83056506 1369.25399482 -452.39272507 1367.44630369 -450.95082283 1365.64178658 C-401.783743 1303.95174362 -382.62490406 1228.67347453 -382.96642065 1151.22811639 C-382.98582632 1146.03212208 -382.98722109 1140.83611794 -382.99060249 1135.64009285 C-382.9984434 1126.66818506 -383.01618236 1117.69634336 -383.03993034 1108.72446442 C-383.07658593 1094.54356129 -383.08178606 1080.36272369 -383.082201 1066.18177986 C-383.08272405 1061.31702516 -383.08344759 1056.4522705 -383.08423233 1051.58751583 C-383.08442022 1050.3724922 -383.08460811 1049.15746856 -383.0848017 1047.90562603 C-383.08735196 1034.12879216 -383.09626832 1020.35196503 -383.10804939 1006.57513618 C-383.10911608 1005.3179767 -383.11018276 1004.06081721 -383.11128177 1002.76556198 C-383.12941771 982.32412837 -383.17058344 961.88278678 -383.21739231 941.44140174 C-383.26470341 920.41547013 -383.27766074 899.38969652 -383.26104748 878.36371833 C-383.25209914 865.41073541 -383.27151029 852.45841289 -383.32732137 839.50554422 C-383.36313387 830.64861031 -383.36649474 821.79204496 -383.34403209 812.93506839 C-383.33210666 807.82397492 -383.33503969 802.71399159 -383.37707901 797.60303307 C-383.4152525 792.92713515 -383.41220581 788.25316411 -383.3760251 783.57726715 C-383.37028695 781.8841498 -383.37986108 780.19089875 -383.40609621 778.49797495 C-383.59030172 765.83079729 -383.59030172 765.83079729 -380.29713464 761.99383414 C-377.99817523 760.42923181 -375.84040437 759.32534958 -373.26722908 758.28924751 C-372.26288826 757.70844429 -371.25854744 757.12764107 -370.22377205 756.52923775 C-369.32803474 756.05687691 -368.43229744 755.58451607 -367.50941658 755.09784126 C-365.97124275 754.27993111 -365.97124275 754.27993111 -364.40199471 753.44549751 C-363.32627205 752.87831001 -362.25054939 752.31112251 -361.14222908 751.72674751 C-352.61952579 747.18837188 -344.15300681 742.57597585 -335.76722908 737.78924751 C-326.57433688 732.54813409 -317.28537881 727.50764933 -307.9542408 722.517519 C-300.87773985 718.7228964 -293.86624732 714.83123759 -286.89222908 710.85174751 C-278.31905403 705.96232931 -269.66367357 701.24325825 -260.95472908 696.60174751 C-251.96000038 691.8072846 -242.99928062 686.9637975 -234.10316658 681.98846626 C-227.90181363 678.52034165 -221.67711317 675.0944343 -215.45472908 671.66424751 C-212.94429212 670.28016973 -210.43388217 668.89604297 -207.92347908 667.51190376 C-207.29192909 667.16372597 -206.6603791 666.81554817 -206.00969124 666.45681953 C-201.60427233 664.02769606 -197.2009408 661.59481933 -192.79847908 659.16034126 C-190.35071836 657.80719436 -187.90279193 656.45434774 -185.45472908 655.10174751 C-184.85153847 654.76845436 -184.24834785 654.43516121 -183.62687874 654.09176826 C-175.40557441 649.55102372 -167.15976702 645.05786996 -158.89222908 640.60174751 C-150.16755388 635.89829208 -141.52472808 631.06554096 -132.91029549 626.16351509 C-125.07965414 621.71911508 -117.1719448 617.42851203 -109.2433033 613.16205025 C-102.4104299 609.47561823 -95.63819897 605.69462415 -88.89222908 601.85174751 C-80.74518145 597.21230086 -72.53392348 592.71184952 -64.26722908 588.28924751 C-55.72764993 583.71306247 -47.21747542 579.09118541 -38.76722908 574.35174751 C-37.85457283 573.84450142 -36.94191658 573.33725533 -36.00160408 572.81463814 C-21.50015162 564.63075631 -11.233078 556.26597171 -5.26722908 540.28924751 C-4.94754158 539.45006783 -4.62785408 538.61088814 -4.29847908 537.74627876 C0.24935278 523.82907109 -1.57627566 509.50602094 -7.26722908 496.28924751 C-9.28805039 492.63160894 -11.54724097 489.45571316 -14.26722908 486.28924751 C-15.08513924 485.32438423 -15.08513924 485.32438423 -15.91957283 484.34002876 C-25.23887362 474.23132838 -39.57853996 468.04243755 -53.23031044 467.16275144 C-59.07586034 466.93288179 -64.9257786 466.9253374 -70.77504158 466.8949604 C-72.76090361 466.87770563 -74.7467588 466.85964889 -76.73260689 466.84085846 C-82.14669335 466.79222778 -87.56080061 466.7558792 -92.97499657 466.7219398 C-97.58644916 466.69152809 -102.19783379 466.65405381 -106.80923367 466.61659127 C-122.96176999 466.48567872 -139.1144428 466.38359654 -155.26722908 466.28924751 C-157.12658718 466.27831959 -157.12658718 466.27831959 -159.02350807 466.26717091 C-193.96875517 466.06274421 -228.91417737 465.90862137 -263.85974693 465.77183688 C-279.29755129 465.71128222 -294.73533578 465.64598664 -310.17312241 465.5810957 C-334.20447767 465.48019629 -358.23585219 465.38516079 -382.26722908 465.28924751 C-382.26722908 433.93924751 -382.26722908 402.58924751 -382.26722908 370.28924751 C-525.48722908 370.28924751 -668.70722908 370.28924751 -816.26722908 370.28924751 C-814.30762457 366.3700385 -811.98450412 363.42916568 -809.14222908 360.16424751 C-808.14117982 358.99848103 -807.14118733 357.83180631 -806.14222908 356.66424751 C-805.65109627 356.0906147 -805.15996346 355.51698189 -804.65394783 354.92596626 C-802.10817195 351.9212336 -799.67135834 348.83131679 -797.22426033 345.74627876 C-793.62018257 341.2213987 -789.93645818 336.76131648 -786.26722908 332.28924751 C-784.76694591 330.4561459 -783.266945 328.62281324 -781.76722908 326.78924751 C-732.26722908 266.28924751 -732.26722908 266.28924751 -682.76722908 205.78924751 C-682.03633064 204.89077095 -681.30543221 203.99229439 -680.55238533 203.06659126 C-678.95524063 201.12544617 -677.33613156 199.20225848 -675.70082283 197.29315376 C-674.87711189 196.3224897 -674.05340096 195.35182564 -673.20472908 194.35174751 C-672.45062752 193.47647408 -671.69652596 192.60120064 -670.91957283 191.69940376 C-668.89026213 189.22642143 -668.89026213 189.22642143 -669.26722908 185.28924751 C-670.93161846 182.76680654 -670.93161846 182.76680654 -673.20472908 180.22674751 C-674.02844002 179.25608345 -674.85215096 178.28541939 -675.70082283 177.28534126 C-676.54773689 176.29663033 -677.39465096 175.30791939 -678.26722908 174.28924751 C-679.77226694 172.46004765 -681.27240338 170.62680221 -682.76722908 168.78924751 C-683.50972908 167.88174751 -684.25222908 166.97424751 -685.01722908 166.03924751 C-699.26722908 148.62258085 -713.51722908 131.20591418 -727.76722908 113.78924751 C-728.51617439 112.87401314 -729.26511971 111.95877876 -730.03676033 111.01581001 C-731.47222843 109.26106967 -732.90716704 107.50589597 -734.34144783 105.75018501 C-738.97046726 100.08583961 -743.61536814 94.43484198 -748.26722908 88.78924751 C-753.61408112 82.3001975 -758.94779226 75.80079918 -764.26722908 69.28924751 C-765.76708604 67.45579715 -767.26708848 65.6224658 -768.76722908 63.78924751 C-795.76722908 30.78924751 -795.76722908 30.78924751 -798.00941658 28.04706001 C-799.53319796 26.18583223 -801.05929624 24.32649921 -802.58754158 22.46893501 C-816.26722908 5.8214509 -816.26722908 5.8214509 -816.26722908 4.28924751 C-672.38722908 4.28924751 -528.50722908 4.28924751 -380.26722908 4.28924751 C-380.26722908 3.62924751 -380.26722908 2.96924751 -380.26722908 2.28924751 C-334.37117593 1.51473002 -288.4783689 1.03383024 -242.57665038 0.77547622 C-238.19543408 0.75081381 -233.81422261 0.72538322 -229.43301193 0.69974444 C-152.95583328 0.25271922 -76.47844275 0.03864368 0 0 Z " fill="#000000" transform="translate(1311.2672290802002,306.7107524871826)"/>
<path d="M0 0 C0.33 0 0.66 0 1 0 C1.03428527 75.90601892 1.06608337 151.81203878 1.08468628 227.71806335 C1.08496239 228.84182057 1.08523851 229.96557778 1.08552299 231.12338824 C1.09150906 255.54672296 1.09704938 279.97005777 1.10213066 304.3933927 C1.10462529 316.3709044 1.10721841 328.34841607 1.10986328 340.32592773 C1.1101248 341.51782262 1.11038632 342.70971751 1.11065576 343.93773043 C1.1191757 382.55787348 1.13419626 421.17801068 1.15259444 459.79815018 C1.17146943 499.49135287 1.18377317 539.18455231 1.18782998 578.8777594 C1.18840627 584.48647592 1.18905755 590.09519242 1.18975449 595.70390892 C1.18988933 596.80776512 1.19002418 597.91162131 1.19016311 599.0489277 C1.19252488 616.80499283 1.20179651 634.56104793 1.21366407 652.31710897 C1.22545232 670.17578704 1.22993251 688.03445519 1.22700275 705.89313702 C1.22548371 716.49817943 1.22951822 727.10318545 1.24159509 737.70822128 C1.24911953 744.80149364 1.24931001 751.89474229 1.24366363 758.98801632 C1.24065727 763.02380772 1.24071924 767.05953051 1.24976636 771.09531442 C1.33194188 810.01758036 1.33194188 810.01758036 -3.0625 828.625 C-3.37840088 829.97476929 -3.37840088 829.97476929 -3.70068359 831.35180664 C-10.1564603 857.55004038 -21.32990071 883.0156024 -37 905 C-37.62406738 905.87640137 -37.62406738 905.87640137 -38.26074219 906.77050781 C-44.52612415 915.45062066 -51.61775938 923.26924158 -59 931 C-59.60199219 931.65484375 -60.20398437 932.3096875 -60.82421875 932.984375 C-66.02632 938.48785743 -72.1252182 942.99731001 -78.13378906 947.57373047 C-79.89917641 948.92294461 -81.6489911 950.29038343 -83.3984375 951.66015625 C-106.21615234 969.23771859 -132.25501137 981.36334783 -159.22998047 991.00830078 C-161.65007796 991.87472384 -164.06159627 992.76121598 -166.47265625 993.65234375 C-185.42419246 1000.47932989 -205.68110942 1004.73784925 -225.60546875 1007.4921875 C-228.97855095 1007.89707861 -228.97855095 1007.89707861 -232 1009 C-234.48589864 1009.34687805 -236.96353421 1009.6578588 -239.45703125 1009.9375 C-240.5661512 1010.06499634 -240.5661512 1010.06499634 -241.69767761 1010.19506836 C-243.26856734 1010.37479548 -244.83964415 1010.55289374 -246.41088867 1010.72949219 C-248.76601193 1010.99476377 -251.12032142 1011.26648943 -253.47460938 1011.5390625 C-255.0103717 1011.71393701 -256.54617786 1011.88842706 -258.08203125 1012.0625 C-258.76594437 1012.14169678 -259.44985748 1012.22089355 -260.15449524 1012.30249023 C-273.27097025 1013.76205668 -286.33814406 1014.19587798 -299.52075195 1014.3515625 C-301.3407054 1014.37589315 -303.16065673 1014.40038301 -304.98060608 1014.42501831 C-321.46559811 1014.63985573 -337.95163186 1014.76247423 -354.4376955 1014.85931396 C-365.50014791 1014.92577607 -376.56086155 1015.02095137 -387.62231445 1015.18652344 C-397.30907422 1015.33149975 -406.99462818 1015.423731 -416.68245858 1015.45199776 C-421.799683 1015.46865328 -426.91367262 1015.51104267 -432.0299015 1015.61651611 C-436.83705095 1015.71466503 -441.63944321 1015.74169571 -446.44746971 1015.7149086 C-448.20646159 1015.71743104 -449.96563872 1015.74550466 -451.72373962 1015.80154037 C-464.63313516 1016.19203748 -464.63313516 1016.19203748 -468.56937003 1012.54655075 C-471.39147678 1008.9647548 -473.3418344 1005.05110918 -475.15122926 1000.88444901 C-476.4323444 998.04010478 -478.03256699 995.40062173 -479.6328125 992.7265625 C-480.79759847 990.69312258 -481.96164582 988.65925941 -483.125 986.625 C-488.15793108 977.85943918 -493.27571019 969.15281561 -498.5 960.5 C-504.19366818 951.06532831 -509.75041188 941.56050572 -515.23876953 932.00512695 C-519.91052012 923.87521669 -524.62807944 915.77364298 -529.375 907.6875 C-529.72898865 907.08442017 -530.08297729 906.48134033 -530.44769287 905.85998535 C-532.24551434 902.79745358 -534.04398556 899.73530406 -535.84277344 896.67333984 C-539.04543931 891.2209197 -542.24226999 885.7650792 -545.43951416 880.30947876 C-547.20943447 877.28951086 -548.97973665 874.26976682 -550.75 871.25 C-551.45833516 870.04166774 -552.16666849 868.8333344 -552.875 867.625 C-553.225625 867.026875 -553.57625 866.42875 -553.9375 865.8125 C-555 864 -556.0625 862.1875 -557.125 860.375 C-557.47561996 859.77688507 -557.82623993 859.17877014 -558.18748474 858.56253052 C-558.89587416 857.35409852 -559.60425835 856.14566346 -560.31263733 854.93722534 C-562.08256979 851.91787646 -563.85259272 848.89858069 -565.62280273 845.87939453 C-568.82113968 840.42425985 -572.01880942 834.96873962 -575.21311951 829.51124573 C-582.50625933 817.05102892 -589.81738902 804.6023833 -597.1875 792.1875 C-603.30110482 781.88855317 -609.35702448 771.55754751 -615.3828125 761.20703125 C-619.34598548 754.40099756 -623.32813349 747.60613698 -627.3125 740.8125 C-627.84627762 739.90229095 -627.84627762 739.90229095 -628.39083862 738.97369385 C-630.20262838 735.8842296 -632.01459218 732.79486748 -633.82666016 729.70556641 C-637.03244605 724.23997896 -640.23656178 718.77341255 -643.4407959 713.30691528 C-644.50111993 711.4980895 -645.56157567 709.68934099 -646.62207031 707.88061523 C-649.82066365 702.42508082 -653.01856973 696.96914914 -656.21311951 691.51124573 C-663.50625933 679.05102892 -670.81738902 666.6023833 -678.1875 654.1875 C-684.30110482 643.88855317 -690.35702448 633.55754751 -696.3828125 623.20703125 C-700.34598548 616.40099756 -704.32813349 609.60613698 -708.3125 602.8125 C-708.66835175 602.20569397 -709.02420349 601.59888794 -709.39083862 600.97369385 C-711.20262838 597.8842296 -713.01459218 594.79486748 -714.82666016 591.70556641 C-718.03234269 586.24015517 -721.23637859 580.77377869 -724.44052124 575.3074646 C-726.21027838 572.28826922 -727.98014478 569.26913789 -729.75 566.25 C-730.45833386 565.04166697 -731.16666719 563.83333364 -731.875 562.625 C-732.225625 562.026875 -732.57625 561.42875 -732.9375 560.8125 C-736.12499995 555.37500008 -736.12499995 555.37500008 -737.18734741 553.5627594 C-737.89618833 552.35356079 -738.60503029 551.14436279 -739.31387329 549.93516541 C-741.07694916 546.92757581 -742.84000728 543.91997582 -744.60302734 540.91235352 C-747.88280147 535.31726857 -751.16274354 529.72228229 -754.44329834 524.12765503 C-755.9703232 521.52345683 -757.49724995 518.91920111 -759.02416992 516.31494141 C-759.74270851 515.0894897 -760.46129363 513.86406528 -761.17993164 512.63867188 C-762.82533288 509.8329865 -764.46957647 507.02665621 -766.11035156 504.21826172 C-767.38827817 502.04182393 -768.67701242 499.87170175 -769.97558594 497.70751953 C-770.91192871 496.13719971 -770.91192871 496.13719971 -771.8671875 494.53515625 C-772.4226123 493.61226807 -772.97803711 492.68937988 -773.55029297 491.73852539 C-777.51376781 484.25144265 -778.57934599 475.83506872 -776.34765625 467.58984375 C-771.97674164 457.85377215 -761.77825942 453.40507285 -752.875 448.625 C-751.58626554 447.92480282 -750.29802611 447.22369386 -749.01025391 446.52172852 C-746.33817175 445.0661121 -743.66402034 443.61440984 -740.98828125 442.16552734 C-735.36647301 439.11776653 -729.76970101 436.02481688 -724.17306519 432.93115234 C-722.37049101 431.93500823 -720.56729686 430.93999541 -718.76391602 429.9453125 C-707.13397576 423.52965545 -695.52391394 417.07839001 -683.91650391 410.62207031 C-679.24498014 408.0239116 -674.57192344 405.4285143 -669.89892578 402.83300781 C-665.57120921 400.42904683 -661.24431877 398.02360709 -656.91796875 395.6171875 C-635.10121256 383.48478557 -613.27699145 371.36810952 -591.3125 359.50463867 C-584.91519739 356.04641939 -578.5431521 352.54684593 -572.19189453 349.00488281 C-563.95817669 344.41345541 -555.70150825 339.86372736 -547.44580078 335.31201172 C-546.18261718 334.61555991 -544.91943359 333.91910809 -543.65625 333.22265625 C-542.70889481 332.70037445 -542.70889481 332.70037445 -541.74240112 332.1675415 C-537.33700517 329.73842349 -532.93368822 327.30556734 -528.53125 324.87109375 C-516.15353711 318.02835165 -503.75627775 311.22571576 -491.31201172 304.50439453 C-484.91488755 301.0462281 -478.54299322 297.54675733 -472.19189453 294.00488281 C-463.95817669 289.41345541 -455.70150825 284.86372736 -447.44580078 280.31201172 C-446.18261718 279.61555991 -444.91943359 278.91910809 -443.65625 278.22265625 C-443.02467987 277.87446838 -442.39310974 277.52628052 -441.74240112 277.1675415 C-437.33700517 274.73842349 -432.93368822 272.30556734 -428.53125 269.87109375 C-416.15353711 263.02835165 -403.75627775 256.22571576 -391.31201172 249.50439453 C-384.17764383 245.64768784 -377.079704 241.73017268 -369.99609375 237.78125 C-363.63116541 234.23414916 -357.2538095 230.70955472 -350.875 227.1875 C-350.25176849 226.84330017 -349.62853699 226.49910034 -348.98641968 226.14447021 C-340.55581468 221.49021976 -332.10237749 216.88116749 -323.625 212.3125 C-315.9464376 208.17393875 -308.32844683 203.94401966 -300.75 199.625 C-291.64862029 194.43892784 -282.44558569 189.45982507 -273.19781494 184.54153442 C-265.27533664 180.3254685 -257.41660322 176.01632552 -249.625 171.5625 C-240.08636508 166.11293996 -230.42650823 160.91762696 -220.72290039 155.77038574 C-212.62153445 151.47291427 -204.54923752 147.1350366 -196.55029297 142.64892578 C-190.50565566 139.26353409 -184.41159913 135.97356898 -178.3125 132.6875 C-169.40734424 127.88525799 -160.58258485 122.95832336 -151.79296875 117.94824219 C-144.52879093 113.82379245 -137.18402347 109.8661753 -129.8125 105.9375 C-100.43900666 90.21598807 -73.13968493 71.89434469 -48 50 C-47.38471436 49.46721436 -46.76942871 48.93442871 -46.13549805 48.38549805 C-41.3192382 44.1986458 -36.60108567 39.91849709 -31.9375 35.5625 C-31.26912109 34.94568359 -30.60074219 34.32886719 -29.91210938 33.69335938 C-25.88886814 29.93598831 -22.17365888 26.03472728 -18.59204102 21.85473633 C-16.45623372 19.36650937 -14.22705827 16.96904159 -12 14.5625 C-8.18637432 10.39371223 -4.6500744 6.11339407 -1.27734375 1.58203125 C-0.64505859 0.79892578 -0.64505859 0.79892578 0 0 Z " fill="#FEFEFE" transform="translate(1709,677)"/>
<path d="M0 0 C0.02290319 44.85920166 0.04051695 89.71840271 0.05106533 134.57760907 C0.05231599 139.87709746 0.05361032 145.17658584 0.05493164 150.47607422 C0.05532511 152.05858214 0.05532511 152.05858214 0.05572652 153.67305993 C0.06007442 170.74170017 0.06795714 187.81033704 0.0771528 204.87897529 C0.08651379 222.40101496 0.09206079 239.92305287 0.09408849 257.44509494 C0.09545864 268.2517193 0.0997817 279.05833411 0.10791647 289.86495553 C0.11321409 297.28166701 0.11479744 304.69837357 0.11350138 312.11508681 C0.11286271 316.39014025 0.11382197 320.66517705 0.11920547 324.94022751 C0.12410854 328.86263188 0.12429379 332.78500855 0.12089889 336.70741425 C0.12047994 338.11815254 0.12171706 339.52889263 0.12488318 340.93962742 C0.15080787 353.21582154 -0.13102562 365.45616513 -2.6875 377.5 C-2.94805176 378.75103516 -2.94805176 378.75103516 -3.21386719 380.02734375 C-8.20866812 403.33064377 -15.82117508 424.95215988 -27 446 C-27.3304834 446.63824707 -27.6609668 447.27649414 -28.00146484 447.93408203 C-42.28880221 475.43841491 -64.29868723 501.28479923 -89 520 C-89.52819336 520.40992188 -90.05638672 520.81984375 -90.60058594 521.2421875 C-115.2185177 540.31579423 -154.72370747 566.06299167 -187 565 C-187.13277344 565.95261719 -187.26554688 566.90523437 -187.40234375 567.88671875 C-187.57894531 569.14097656 -187.75554687 570.39523437 -187.9375 571.6875 C-188.11152344 572.92886719 -188.28554688 574.17023437 -188.46484375 575.44921875 C-189 579 -189 579 -189.52514648 581.18920898 C-190.16368464 584.96889526 -190.14232228 588.70257278 -190.1328125 592.5234375 C-190.13426773 593.36592545 -190.13572296 594.20841339 -190.13722229 595.07643127 C-190.13947684 597.84266548 -190.13316415 600.60877792 -190.125 603.375 C-190.12217514 604.79113083 -190.12217514 604.79113083 -190.11929321 606.23587036 C-190.08812478 619.61587201 -189.99753424 632.99694368 -189.73553467 646.37457275 C-189.70362292 648.0772488 -189.67644903 649.78002053 -189.65411377 651.48284912 C-189.62113278 653.85240214 -189.56917163 656.22077437 -189.51171875 658.58984375 C-189.50211876 659.63381065 -189.50211876 659.63381065 -189.49232483 660.6988678 C-189.36844668 664.72675202 -188.81091016 667.05726269 -186 670 C-189.90646452 670.83063582 -193.11703457 671.03370577 -197 670 C-200.65623632 666.27851638 -202.82852399 661.78379198 -205.1875 657.1875 C-205.90803294 655.86189244 -206.63312638 654.5387545 -207.36254883 653.21801758 C-208.86294082 650.4940325 -210.34395044 647.76080352 -211.8125 645.01953125 C-215.08034598 638.96206065 -218.6423877 633.08580362 -222.1875 627.1875 C-223.51737541 624.95025831 -224.84551899 622.71198622 -226.171875 620.47265625 C-226.81318359 619.39000488 -227.45449219 618.30735352 -228.11523438 617.19189453 C-231.64932063 611.20683705 -235.14737144 605.20085485 -238.64355469 599.19360352 C-241.79457357 593.77973365 -244.95282073 588.37025026 -248.125 582.96875 C-248.653498 582.06880562 -248.653498 582.06880562 -249.19267273 581.15068054 C-249.54763321 580.54625626 -249.90259369 579.94183197 -250.26831055 579.3190918 C-258.29397418 565.65286791 -266.24921929 551.94773093 -274.15283203 538.21044922 C-282.6394611 523.46036036 -291.1466792 508.72306472 -299.73510742 494.03198242 C-303.97852848 486.76765962 -308.1812559 479.48058735 -312.375 472.1875 C-318.17017194 462.1152261 -324.06819025 452.10777063 -330.01025391 442.12158203 C-334.65425068 434.3046963 -339.22171963 426.44691222 -343.75 418.5625 C-348.47732532 410.33656426 -353.26137919 402.15246413 -358.16552734 394.03076172 C-361.29142215 388.85250134 -364.39370244 383.66098763 -367.4765625 378.45703125 C-367.87329666 377.78733307 -368.27003082 377.11763489 -368.67878723 376.42764282 C-369.49724046 375.04589452 -370.3156656 373.66412958 -371.13406372 372.28234863 C-378.35051273 360.1001209 -385.62843685 347.96018019 -393.01953125 335.8828125 C-394.01325168 334.25534926 -395.00674155 332.62774523 -396 331 C-396.52940186 330.13608643 -397.05880371 329.27217285 -397.60424805 328.38208008 C-410.01611957 307.96230254 -415.22321662 283.268483 -409.74609375 259.546875 C-404.70810703 242.34914022 -397.82266065 228.50856089 -385 216 C-384.27039063 215.26136719 -383.54078125 214.52273438 -382.7890625 213.76171875 C-377.2931838 208.50079397 -371.04258406 204.90351538 -364.39794922 201.30517578 C-360.46551692 199.16479876 -356.55861141 196.97861522 -352.64697266 194.80053711 C-349.72500623 193.17417513 -346.80152606 191.55061157 -343.8770752 189.9287262 C-329.73337265 182.08441006 -315.61750163 174.1900612 -301.54882812 166.21191406 C-290.75452863 160.09162911 -279.91022701 154.06651904 -269.04003906 148.08251953 C-267.80272656 147.40138138 -266.56542187 146.72022904 -265.328125 146.0390625 C-264.71567932 145.70190216 -264.10323364 145.36474182 -263.472229 145.0173645 C-257.13859638 141.52876538 -250.81875283 138.01546698 -244.5 134.5 C-235.17704606 129.31436281 -225.84295446 124.14947003 -216.5 119 C-202.64889395 111.3652467 -188.82157204 103.68809763 -175 96 C-160.56955169 87.97322163 -146.13073702 79.96227788 -131.66955566 71.99102783 C-118.42897228 64.69195849 -105.21269863 57.34941848 -92 50 C-78.21913172 42.33454339 -64.43334596 34.67834997 -50.625 27.0625 C-50.03148743 26.73513855 -49.43797485 26.4077771 -48.82647705 26.07049561 C-42.53160566 22.59876829 -36.23546215 19.12935625 -29.93807983 15.66218567 C-27.26791275 14.19186586 -24.59813338 12.72084293 -21.92840576 11.24972534 C-20.04462035 10.21207826 -18.16025806 9.17548435 -16.27587891 8.13891602 C-15.13296387 7.50912842 -13.99004883 6.87934082 -12.8125 6.23046875 C-11.80832031 5.67770264 -10.80414062 5.12493652 -9.76953125 4.55541992 C-7.90978417 3.5109516 -6.07330156 2.42403577 -4.26171875 1.2980957 C-2 0 -2 0 0 0 Z " fill="#000000" transform="translate(824,1129)"/>
<path d="M0 0 C0.66 0 1.32 0 2 0 C2.28117676 0.80284424 2.56235352 1.60568848 2.85205078 2.43286133 C5.77576439 10.44055549 9.35918008 17.4758975 13.875 24.6875 C15.22074483 26.88289302 16.56443401 29.07954723 17.90625 31.27734375 C18.58816406 32.39093262 19.27007813 33.50452148 19.97265625 34.65185547 C23.19223338 39.96896538 26.2855128 45.35658624 29.375 50.75 C34.66513504 59.96332805 39.99654527 69.15056999 45.375 78.3125 C45.72898865 78.91557983 46.08297729 79.51865967 46.44769287 80.14001465 C48.24551434 83.20254642 50.04398556 86.26469594 51.84277344 89.32666016 C55.04581315 94.77971674 58.24300243 100.23620249 61.44061279 105.69244385 C62.49883466 107.49801166 63.55724401 109.30346942 64.61572266 111.10888672 C67.84152022 116.61106706 71.06680134 122.11354807 74.29016113 127.61715698 C81.00887326 139.08871514 87.72928431 150.55901963 94.5 162 C101.64045717 174.06575996 108.72496259 186.16418282 115.81054688 198.26220703 C117.96140075 201.93441115 120.1133245 205.60598736 122.265625 209.27734375 C122.61530838 209.87383224 122.96499176 210.47032074 123.32527161 211.08488464 C124.73692252 213.49281072 126.14862358 215.90070739 127.56039429 218.30856323 C131.11295508 224.36766041 134.66512191 230.42698358 138.21311951 236.48875427 C145.50625933 248.94897108 152.81738902 261.3976167 160.1875 273.8125 C166.30110482 284.11144683 172.35702448 294.44245249 178.3828125 304.79296875 C182.34598548 311.59900244 186.32813349 318.39386302 190.3125 325.1875 C190.66835175 325.79430603 191.02420349 326.40111206 191.39083862 327.02630615 C193.20262838 330.1157704 195.01459218 333.20513252 196.82666016 336.29443359 C200.03234269 341.75984483 203.23637859 347.22622131 206.44052124 352.6925354 C208.21027838 355.71173078 209.98014478 358.73086211 211.75 361.75 C212.45833386 362.95833303 213.16666719 364.16666636 213.875 365.375 C214.225625 365.973125 214.57625 366.57125 214.9375 367.1875 C252.12499997 430.62499995 252.12499997 430.62499995 253.18745422 432.43742371 C253.89593806 433.64601258 254.60442398 434.85460022 255.31291199 436.06318665 C257.08145979 439.08010023 258.84997154 442.09703494 260.6184082 445.11401367 C263.83312952 450.59829314 267.04813625 456.08240441 270.26445007 461.56575012 C278.37672406 475.39601945 286.48008664 489.23134291 294.55078125 503.0859375 C297.02045952 507.32437173 299.49852134 511.55780157 301.98046875 515.7890625 C302.63184814 516.90112061 303.28322754 518.01317871 303.9543457 519.15893555 C305.2128728 521.30724626 306.47306638 523.45458178 307.73510742 525.60083008 C308.29431885 526.55626709 308.85353027 527.5117041 309.4296875 528.49609375 C309.92710449 529.34357178 310.42452148 530.1910498 310.93701172 531.06420898 C312 533 312 533 312 534 C249.43279696 534.69660538 186.87167306 535.10080718 124.30078125 535.09765625 C123.53500674 535.09762838 122.76923224 535.09760051 121.98025244 535.09757179 C102.50835148 535.0966442 83.03645992 535.08615597 63.56456459 535.07202661 C52.28938142 535.06393897 41.01419912 535.05858211 29.73901367 535.05493164 C28.92988112 535.05466892 28.12074856 535.05440619 27.28709684 535.05413551 C23.22269578 535.05282925 19.15829472 535.05156584 15.09389365 535.05032361 C-17.937409 535.04017389 -50.96870358 535.02276676 -84 535 C-82.15328834 531.10459259 -79.68769346 527.90873374 -77 524.5625 C-75.9996664 523.29974336 -74.99967343 522.03671683 -74 520.7734375 C-72.56333598 518.96474731 -71.12549599 517.15705618 -69.68359375 515.35253906 C-17.35533714 449.69616067 -1.66233053 372.15473204 -1.39014816 290.43697357 C-1.3669686 284.31702103 -1.33022327 278.19716257 -1.29401958 272.07727575 C-1.21611656 258.80824007 -1.15339675 245.53916292 -1.09716797 232.27001953 C-1.02799209 215.96366503 -0.95027097 199.65736624 -0.86767578 183.35107422 C-0.86181756 182.1930933 -0.85595935 181.03511238 -0.84992361 179.84204113 C-0.82585624 175.08609958 -0.80176405 170.33015815 -0.77763486 165.5742169 C-0.49773008 110.38290337 -0.24267948 55.19148861 0 0 Z " fill="#000000" transform="translate(930,1157)"/>
<path d="M0 0 C82.54034649 -0.12099405 82.54034649 -0.12099405 117.02539062 -0.14648438 C124.91837584 -0.15235774 132.81136088 -0.15841912 140.7043457 -0.16479492 C142.18817382 -0.16598179 142.18817382 -0.16598179 143.70197827 -0.16719264 C159.65953734 -0.18023057 175.61706389 -0.20387653 191.5746037 -0.23145839 C207.95871424 -0.25954078 224.34280779 -0.27618225 240.72694141 -0.28226548 C250.83189329 -0.28637604 260.93675327 -0.29934584 271.04167686 -0.3237494 C277.97668905 -0.33964158 284.91165392 -0.34439249 291.84668299 -0.34050413 C295.84420747 -0.338588 299.84157168 -0.34146707 303.83906746 -0.35761642 C307.50675372 -0.37232437 311.17417345 -0.37288262 314.84187255 -0.36269668 C316.78081208 -0.36084915 318.71974896 -0.37368988 320.65864199 -0.38724393 C337.85855786 -0.30009601 353.28690575 4.52442331 365.81640625 16.68359375 C377.17174828 28.72960059 381.78712093 41.95444267 381.3828125 58.46875 C380.55931289 72.26088735 374.24603904 85.49490528 364.86328125 95.4765625 C358.92420851 100.71072484 351.93748895 104.26188346 345 108 C343.12359622 109.0206464 341.24729865 110.04148807 339.37109375 111.0625 C336.34648149 112.70428994 333.31990923 114.34212202 330.28881836 115.97192383 C323.30788065 119.7274326 316.38848401 123.57776102 309.5 127.5 C300.60176065 132.56309437 291.63340955 137.48130266 282.62231445 142.34033203 C274.5626685 146.6875647 266.54893091 151.11123937 258.55322266 155.57470703 C243.55255861 163.9485717 228.534172 172.28274089 213.41625977 180.44335938 C206.98389583 183.91782952 200.57728571 187.43406181 194.19238281 190.99487305 C185.95846159 195.58630928 177.70166768 200.13618474 169.44580078 204.68798828 C168.18261718 205.38444009 166.91943359 206.08089191 165.65625 206.77734375 C164.70889481 207.29962555 164.70889481 207.29962555 163.74240112 207.8324585 C159.33700517 210.26157651 154.93368822 212.69443266 150.53125 215.12890625 C138.15496732 221.97085769 125.75892604 228.77229806 113.31640625 235.4934082 C105.36148197 239.7940726 97.44917639 244.16692563 89.55322266 248.57470703 C75.65806299 256.33144275 61.76008392 264.07730179 47.75 271.625 C38.74390415 276.47736758 29.8121125 281.44900207 20.92285156 286.51220703 C16.27958677 289.15588605 11.6281334 291.78469356 6.95703125 294.37890625 C6.05573486 294.88107666 5.15443848 295.38324707 4.22583008 295.90063477 C2 297 2 297 0 297 C0 198.99 0 100.98 0 0 Z " fill="#FEFEFE" transform="translate(929,773)"/>
<path d="M0 0 C0.33 0 0.66 0 1 0 C2.26703119 53.18119764 -12.3888495 101.73294063 -48.84375 141.62109375 C-50.79615436 143.77510509 -52.68277359 145.97027726 -54.5625 148.1875 C-58.07569151 152.19573213 -61.88270105 155.62273845 -66 159 C-66.97453125 159.81210937 -67.9490625 160.62421875 -68.953125 161.4609375 C-88.35577943 177.35349116 -110.31060872 189.2489601 -134 197.4375 C-134.86262451 197.74333008 -135.72524902 198.04916016 -136.61401367 198.36425781 C-154.35109176 204.16054172 -172.62123014 205.64911741 -191.16357422 205.46655273 C-194.39472131 205.43732159 -197.62424246 205.44606727 -200.85546875 205.45898438 C-212.88928785 205.4472819 -224.26156097 204.68452156 -236 202 C-236.96921387 201.78110107 -237.93842773 201.56220215 -238.93701172 201.33666992 C-241.39562723 200.74005644 -243.82109547 200.08227686 -246.25 199.375 C-247.11641113 199.12411621 -247.98282227 198.87323242 -248.87548828 198.61474609 C-299.21350065 183.42538008 -340.20463042 148.14549196 -365.0546875 102.23828125 C-374.08216295 85.1218735 -379.99525095 67.44014862 -383.54345703 48.43798828 C-383.91916888 46.43164683 -384.32811869 44.43155828 -384.74609375 42.43359375 C-386.70185857 32.08827227 -386.1835021 21.48361636 -386 11 C-385.34 10.67 -384.68 10.34 -384 10 C-383.81566406 11.14210938 -383.63132812 12.28421875 -383.44140625 13.4609375 C-376.38418399 54.04635021 -357.16582029 89.40422268 -329 119 C-328.34773438 119.70511719 -327.69546875 120.41023437 -327.0234375 121.13671875 C-302.06596601 147.31551331 -265.95609313 163.74727466 -231 171 C-230.21028809 171.16516113 -229.42057617 171.33032227 -228.60693359 171.50048828 C-203.19967956 176.5485291 -176.23317462 175.23064142 -151 170 C-149.90099365 169.77570313 -149.90099365 169.77570313 -148.77978516 169.546875 C-108.34123226 160.92636928 -68.22967652 135.65595557 -43 103 C-42.34902344 102.2265625 -41.69804688 101.453125 -41.02734375 100.65625 C-17.13013335 72.15063123 -4.7208428 36.42341317 0 0 Z " fill="#FCFCFC" transform="translate(1459,508)"/>
<path d="M0 0 C0.73678986 -0.00073517 1.47357971 -0.00147034 2.23269653 -0.00222778 C41.80059707 0.10072611 77.50071907 17.05190194 105.5 44.4375 C106.29664063 45.17226563 107.09328125 45.90703125 107.9140625 46.6640625 C132.62813866 69.98087641 149.10979445 106.62560996 151.5 140.4375 C151.61193491 145.1051857 151.59454465 149.76884038 151.5625 154.4375 C151.55798828 155.68917969 151.55347656 156.94085938 151.54882812 158.23046875 C151.53711415 161.29952941 151.52071073 164.36848907 151.5 167.4375 C150.84 167.4375 150.18 167.4375 149.5 167.4375 C149.41363281 166.71949219 149.32726563 166.00148438 149.23828125 165.26171875 C144.6315114 131.32377202 129.6000673 101.34608573 105.83837891 76.82275391 C104.68428424 75.62823856 103.54923142 74.41537918 102.41796875 73.19921875 C84.8077668 54.69923817 59.09882636 41.63676466 34.5 35.4375 C32.61474609 34.95796875 32.61474609 34.95796875 30.69140625 34.46875 C-7.02169809 26.13689268 -49.43265876 33.97787751 -81.83911133 54.60229492 C-87.74292919 58.47596642 -93.19506587 62.77709058 -98.5 67.4375 C-99.32757812 68.14390625 -100.15515625 68.8503125 -101.0078125 69.578125 C-129.18666994 94.13524841 -145.93390234 128.66572719 -151.5 165.4375 C-151.83 165.4375 -152.16 165.4375 -152.5 165.4375 C-152.94410152 148.39083398 -153.24071502 131.97792526 -148.5 115.4375 C-148.25330566 114.57334473 -148.00661133 113.70918945 -147.75244141 112.81884766 C-144.19620012 100.72238788 -139.63305604 89.44620729 -133.5 78.4375 C-133.15211426 77.80118652 -132.80422852 77.16487305 -132.44580078 76.50927734 C-127.12081592 66.85119267 -120.83484025 58.64580215 -113.5 50.4375 C-112.87222656 49.68855469 -112.24445313 48.93960938 -111.59765625 48.16796875 C-93.56189605 26.65236776 -67.05919408 12.29519194 -40.375 4.625 C-39.70807129 4.4300293 -39.04114258 4.23505859 -38.35400391 4.03417969 C-25.82021455 0.6476376 -12.91065225 -0.00567598 0 0 Z " fill="#FBFBFB" transform="translate(1266.5,334.5625)"/>
<path d="M0 0 C0 0.33 0 0.66 0 1 C-0.60360352 1.12528076 -1.20720703 1.25056152 -1.82910156 1.37963867 C-18.3835156 4.74738805 -18.3835156 4.74738805 -34 11 C-34.61536621 11.31453125 -35.23073242 11.6290625 -35.86474609 11.953125 C-59.78849849 24.33963191 -79.43656334 43.91686252 -88.390625 69.7734375 C-89.32955889 72.8354831 -90.17623316 75.90553906 -91 79 C-91.34160156 79.90363281 -91.68320313 80.80726563 -92.03515625 81.73828125 C-99.47877502 106.90193175 -93.33752056 136.1950067 -81.625 158.9375 C-77.97288917 165.38627228 -73.60129472 171.20447612 -69 177 C-67.824375 178.5778125 -67.824375 178.5778125 -66.625 180.1875 C-62.4857237 184.62243889 -57.7891795 188.2909887 -53 192 C-51.824375 192.91652344 -51.824375 192.91652344 -50.625 193.8515625 C-38.1245949 203.10017303 -23.72895637 209.34313824 -8.5 212.1875 C-7.12328125 212.45336914 -7.12328125 212.45336914 -5.71875 212.72460938 C-3.48028125 213.15598096 -1.24080567 213.58096934 1 214 C1 214.33 1 214.66 1 215 C-27.04161134 216.11670134 -52.25188496 207.81625243 -74 190 C-74.85078125 189.31421875 -75.7015625 188.6284375 -76.578125 187.921875 C-94.99226598 172.287227 -109.28491297 147.57873731 -111.85424805 123.34204102 C-112.19163445 117.92068799 -112.14210093 112.49204379 -112.125 107.0625 C-112.12886719 105.83853516 -112.13273437 104.61457031 -112.13671875 103.35351562 C-112.12614121 93.52169107 -111.63553901 84.76372393 -108.4375 75.4375 C-108.17356445 74.66446533 -107.90962891 73.89143066 -107.63769531 73.0949707 C-99.56746697 50.24409584 -84.88622961 29.82317353 -64 17 C-63.05511719 16.40703125 -62.11023437 15.8140625 -61.13671875 15.203125 C-42.06440979 3.62615925 -22.17652716 -0.61506547 0 0 Z " fill="#F8F8F8" transform="translate(1274,417)"/>
<path d="M0 0 C24.89856092 -1.03744004 47.45099612 5.90073524 66.2265625 22.85546875 C72.64545426 28.89208422 77.73253012 35.24513537 82 43 C82.68835937 44.21429688 82.68835937 44.21429688 83.390625 45.453125 C92.20066829 61.90561548 95.59161084 84.78307605 90.8125 103.0625 C90.24375181 104.72090593 89.63791047 106.36694919 89 108 C88.63648438 109.051875 88.27296875 110.10375 87.8984375 111.1875 C80.19965064 132.64476401 65.16422138 149.1114818 45.125 159.75 C33.10460554 165.41591425 21.31422218 168.19350562 8.0625 168.0625 C7.18787109 168.05798828 6.31324219 168.05347656 5.41210938 168.04882812 C3.27470953 168.03714834 1.13734537 168.01921689 -1 168 C-1 167.67 -1 167.34 -1 167 C-0.09121094 166.85304688 0.81757812 166.70609375 1.75390625 166.5546875 C15.87613835 164.03441223 28.27059107 159.49855378 40 151 C40.90234375 150.35546875 41.8046875 149.7109375 42.734375 149.046875 C59.20282191 136.48619516 69.19553086 118.26458464 73.6171875 98.19921875 C76.22187314 76.43148875 72.89405304 53.69070654 59.65625 35.6640625 C56.03151184 31.15730473 52.11047448 27.06428938 48 23 C47.45859375 22.43796875 46.9171875 21.8759375 46.359375 21.296875 C34.14297545 9.55489873 16.46752265 3.45860369 0 1 C0 0.67 0 0.34 0 0 Z " fill="#F9F9F9" transform="translate(1279,440)"/>
</svg>
